solid OpenSCAD_Model
  facet normal -1 0 0
    outer loop
      vertex -39 -25.5 -6
      vertex -39 -25.5 6
      vertex -39 25.5 -6
    endloop
  endfacet
  facet normal -1 0 0
    outer loop
      vertex -39 25.5 -6
      vertex -39 -25.5 6
      vertex -39 25.5 6
    endloop
  endfacet
  facet normal -0.951057 -0.309017 0
    outer loop
      vertex -39 -25.5 -6
      vertex -38.2361 -27.8511 -6
      vertex -39 -25.5 6
    endloop
  endfacet
  facet normal -0.951057 -0.309017 0
    outer loop
      vertex -39 -25.5 6
      vertex -38.2361 -27.8511 -6
      vertex -38.2361 -27.8511 6
    endloop
  endfacet
  facet normal -0.908661 -0.295242 -0.295242
    outer loop
      vertex -38.2361 -27.8511 -6
      vertex -39 -25.5 -6
      vertex -37.618 -27.4021 -8.35114
    endloop
  endfacet
  facet normal -0.908661 -0.295242 -0.295242
    outer loop
      vertex -37.618 -27.4021 -8.35114
      vertex -39 -25.5 -6
      vertex -38.2361 -25.5 -8.35114
    endloop
  endfacet
  facet normal -0.951057 0 -0.309017
    outer loop
      vertex -39 -25.5 -6
      vertex -39 25.5 -6
      vertex -38.2361 -25.5 -8.35114
    endloop
  endfacet
  facet normal -0.951057 0 -0.309017
    outer loop
      vertex -38.2361 -25.5 -8.35114
      vertex -39 25.5 -6
      vertex -38.2361 25.5 -8.35114
    endloop
  endfacet
  facet normal -0.908661 0.295242 -0.295242
    outer loop
      vertex -38.2361 25.5 -8.35114
      vertex -39 25.5 -6
      vertex -38.2361 27.8511 -6
    endloop
  endfacet
  facet normal -0.951057 0.309017 0
    outer loop
      vertex -39 25.5 -6
      vertex -39 25.5 6
      vertex -38.2361 27.8511 -6
    endloop
  endfacet
  facet normal -0.951057 0.309017 0
    outer loop
      vertex -38.2361 27.8511 -6
      vertex -39 25.5 6
      vertex -38.2361 27.8511 6
    endloop
  endfacet
  facet normal -0.951057 0 0.309017
    outer loop
      vertex -39 -25.5 6
      vertex -38.2361 -25.5 8.35114
      vertex -39 25.5 6
    endloop
  endfacet
  facet normal -0.951057 0 0.309017
    outer loop
      vertex -39 25.5 6
      vertex -38.2361 -25.5 8.35114
      vertex -38.2361 25.5 8.35114
    endloop
  endfacet
  facet normal -0.908661 0.295242 0.295242
    outer loop
      vertex -38.2361 27.8511 6
      vertex -39 25.5 6
      vertex -37.618 27.4021 8.35114
    endloop
  endfacet
  facet normal -0.908661 0.295242 0.295242
    outer loop
      vertex -37.618 27.4021 8.35114
      vertex -39 25.5 6
      vertex -38.2361 25.5 8.35114
    endloop
  endfacet
  facet normal -0.908661 -0.295242 0.295242
    outer loop
      vertex -38.2361 -25.5 8.35114
      vertex -39 -25.5 6
      vertex -38.2361 -27.8511 6
    endloop
  endfacet
  facet normal -0.587785 -0.809017 0
    outer loop
      vertex -38.2361 -27.8511 6
      vertex -38.2361 -27.8511 -6
      vertex -36.2361 -29.3042 -6
    endloop
  endfacet
  facet normal -0.587785 -0.809017 0
    outer loop
      vertex -36.2361 -29.3042 6
      vertex -38.2361 -27.8511 6
      vertex -36.2361 -29.3042 -6
    endloop
  endfacet
  facet normal -0.908661 -0.295242 0.295242
    outer loop
      vertex -38.2361 -25.5 8.35114
      vertex -38.2361 -27.8511 6
      vertex -37.618 -27.4021 8.35114
    endloop
  endfacet
  facet normal -0.561583 -0.772953 0.295242
    outer loop
      vertex -37.618 -27.4021 8.35114
      vertex -38.2361 -27.8511 6
      vertex -36.2361 -29.3042 6
    endloop
  endfacet
  facet normal -0.561583 -0.772953 -0.295242
    outer loop
      vertex -36.2361 -29.3042 -6
      vertex -38.2361 -27.8511 -6
      vertex -36 -28.5777 -8.35114
    endloop
  endfacet
  facet normal -0.561583 -0.772953 -0.295242
    outer loop
      vertex -36 -28.5777 -8.35114
      vertex -38.2361 -27.8511 -6
      vertex -37.618 -27.4021 -8.35114
    endloop
  endfacet
  facet normal -0.356822 -0.491123 -0.794654
    outer loop
      vertex -36 -28.5777 -8.35114
      vertex -37.618 -27.4021 -8.35114
      vertex -35.382 -26.6756 -9.80423
    endloop
  endfacet
  facet normal -0.356822 -0.491124 -0.794654
    outer loop
      vertex -35.382 -26.6756 -9.80423
      vertex -37.618 -27.4021 -8.35114
      vertex -36 -26.2265 -9.80423
    endloop
  endfacet
  facet normal -0.57735 -0.187592 -0.794654
    outer loop
      vertex -37.618 -27.4021 -8.35114
      vertex -38.2361 -25.5 -8.35114
      vertex -36 -26.2265 -9.80423
    endloop
  endfacet
  facet normal -0.57735 -0.187592 -0.794654
    outer loop
      vertex -36 -26.2265 -9.80423
      vertex -38.2361 -25.5 -8.35114
      vertex -36.2361 -25.5 -9.80423
    endloop
  endfacet
  facet normal -0.587785 0 -0.809017
    outer loop
      vertex -38.2361 -25.5 -8.35114
      vertex -38.2361 25.5 -8.35114
      vertex -36.2361 -25.5 -9.80423
    endloop
  endfacet
  facet normal -0.587785 0 -0.809017
    outer loop
      vertex -36.2361 -25.5 -9.80423
      vertex -38.2361 25.5 -8.35114
      vertex -36.2361 25.5 -9.80423
    endloop
  endfacet
  facet normal -0.57735 0.187592 -0.794654
    outer loop
      vertex -36.2361 25.5 -9.80423
      vertex -38.2361 25.5 -8.35114
      vertex -37.618 27.4021 -8.35114
    endloop
  endfacet
  facet normal -0.908661 0.295242 -0.295242
    outer loop
      vertex -37.618 27.4021 -8.35114
      vertex -38.2361 25.5 -8.35114
      vertex -38.2361 27.8511 -6
    endloop
  endfacet
  facet normal -0.587785 0.809017 0
    outer loop
      vertex -38.2361 27.8511 -6
      vertex -38.2361 27.8511 6
      vertex -36.2361 29.3042 -6
    endloop
  endfacet
  facet normal -0.587785 0.809017 0
    outer loop
      vertex -36.2361 29.3042 -6
      vertex -38.2361 27.8511 6
      vertex -36.2361 29.3042 6
    endloop
  endfacet
  facet normal -0.561583 0.772953 -0.295242
    outer loop
      vertex -37.618 27.4021 -8.35114
      vertex -38.2361 27.8511 -6
      vertex -36.2361 29.3042 -6
    endloop
  endfacet
  facet normal -0.561583 0.772953 0.295242
    outer loop
      vertex -36.2361 29.3042 6
      vertex -38.2361 27.8511 6
      vertex -36 28.5777 8.35114
    endloop
  endfacet
  facet normal -0.561583 0.772953 0.295242
    outer loop
      vertex -36 28.5777 8.35114
      vertex -38.2361 27.8511 6
      vertex -37.618 27.4021 8.35114
    endloop
  endfacet
  facet normal -0.57735 0.187592 0.794654
    outer loop
      vertex -37.618 27.4021 8.35114
      vertex -38.2361 25.5 8.35114
      vertex -36 26.2265 9.80423
    endloop
  endfacet
  facet normal -0.57735 0.187592 0.794654
    outer loop
      vertex -36 26.2265 9.80423
      vertex -38.2361 25.5 8.35114
      vertex -36.2361 25.5 9.80423
    endloop
  endfacet
  facet normal -0.587785 0 0.809017
    outer loop
      vertex -38.2361 25.5 8.35114
      vertex -38.2361 -25.5 8.35114
      vertex -36.2361 -25.5 9.80423
    endloop
  endfacet
  facet normal -0.587785 0 0.809017
    outer loop
      vertex -36.2361 25.5 9.80423
      vertex -38.2361 25.5 8.35114
      vertex -36.2361 -25.5 9.80423
    endloop
  endfacet
  facet normal -0.57735 -0.187592 0.794654
    outer loop
      vertex -36.2361 -25.5 9.80423
      vertex -38.2361 -25.5 8.35114
      vertex -37.618 -27.4021 8.35114
    endloop
  endfacet
  facet normal -0.356822 0.491123 0.794654
    outer loop
      vertex -36 28.5777 8.35114
      vertex -37.618 27.4021 8.35114
      vertex -35.382 26.6756 9.80423
    endloop
  endfacet
  facet normal -0.356822 0.491124 0.794654
    outer loop
      vertex -35.382 26.6756 9.80423
      vertex -37.618 27.4021 8.35114
      vertex -36 26.2265 9.80423
    endloop
  endfacet
  facet normal -0.561583 -0.772953 0.295242
    outer loop
      vertex -36 -28.5777 8.35114
      vertex -37.618 -27.4021 8.35114
      vertex -36.2361 -29.3042 6
    endloop
  endfacet
  facet normal -0.12148 -0.944841 0.304169
    outer loop
      vertex -36 -28.5777 8.35114
      vertex -36.2361 -29.3042 6
      vertex 33.7639 -38.3042 6
    endloop
  endfacet
  facet normal -0.12148 -0.944841 0.304169
    outer loop
      vertex 34 -37.5777 8.35114
      vertex -36 -28.5777 8.35114
      vertex 33.7639 -38.3042 6
    endloop
  endfacet
  facet normal -0.127522 -0.991836 0
    outer loop
      vertex -36.2361 -29.3042 6
      vertex -36.2361 -29.3042 -6
      vertex 33.7639 -38.3042 -6
    endloop
  endfacet
  facet normal -0.127522 -0.991836 0
    outer loop
      vertex 33.7639 -38.3042 6
      vertex -36.2361 -29.3042 6
      vertex 33.7639 -38.3042 -6
    endloop
  endfacet
  facet normal -0.12148 -0.944841 -0.304169
    outer loop
      vertex 33.7639 -38.3042 -6
      vertex -36.2361 -29.3042 -6
      vertex -36 -28.5777 -8.35114
    endloop
  endfacet
  facet normal -0.12148 -0.944841 -0.304169
    outer loop
      vertex 34 -37.5777 -8.35114
      vertex 33.7639 -38.3042 -6
      vertex -36 -28.5777 -8.35114
    endloop
  endfacet
  facet normal -0.57735 -0.187592 0.794654
    outer loop
      vertex -36.2361 -25.5 9.80423
      vertex -37.618 -27.4021 8.35114
      vertex -36 -26.2265 9.80423
    endloop
  endfacet
  facet normal -0.356822 -0.491123 0.794654
    outer loop
      vertex -36 -26.2265 9.80423
      vertex -37.618 -27.4021 8.35114
      vertex -36 -28.5777 8.35114
    endloop
  endfacet
  facet normal -0.0758113 -0.589643 -0.804098
    outer loop
      vertex -36 -28.5777 -8.35114
      vertex -35.382 -26.6756 -9.80423
      vertex 34 -37.5777 -8.35114
    endloop
  endfacet
  facet normal -0.0758113 -0.589643 -0.804098
    outer loop
      vertex 34 -37.5777 -8.35114
      vertex -35.382 -26.6756 -9.80423
      vertex 34.618 -35.6756 -9.80423
    endloop
  endfacet
  facet normal 0 0 -1
    outer loop
      vertex -36.2361 -25.5 -9.80423
      vertex -36.2361 25.5 -9.80423
      vertex -36 -26.2265 -9.80423
    endloop
  endfacet
  facet normal 0 0 -1
    outer loop
      vertex -36 -26.2265 -9.80423
      vertex -36.2361 25.5 -9.80423
      vertex -36 26.2265 -9.80423
    endloop
  endfacet
  facet normal 0 0 -1
    outer loop
      vertex -36 -26.2265 -9.80423
      vertex -36 26.2265 -9.80423
      vertex -35.382 26.6756 -9.80423
    endloop
  endfacet
  facet normal 0 0 -1
    outer loop
      vertex -14.3517 1.99521 -9.80423
      vertex -35.382 26.6756 -9.80423
      vertex 34.618 35.6756 -9.80423
    endloop
  endfacet
  facet normal 0 0 -1
    outer loop
      vertex -36 -26.2265 -9.80423
      vertex 34.618 35.6756 -9.80423
      vertex 35 35.6756 -9.80423
    endloop
  endfacet
  facet normal 0 0 -1
    outer loop
      vertex 11.6972 -1.23311 -9.80423
      vertex 35 35.6756 -9.80423
      vertex 35 -35.6756 -9.80423
    endloop
  endfacet
  facet normal 0 0 -1
    outer loop
      vertex -36 -26.2265 -9.80423
      vertex 35 -35.6756 -9.80423
      vertex 34.618 -35.6756 -9.80423
    endloop
  endfacet
  facet normal 0 0 -1
    outer loop
      vertex -36 -26.2265 -9.80423
      vertex 34.618 -35.6756 -9.80423
      vertex -35.382 -26.6756 -9.80423
    endloop
  endfacet
  facet normal 0 0 -1
    outer loop
      vertex -36 -26.2265 -9.80423
      vertex -35.382 26.6756 -9.80423
      vertex -17.0605 0.115073 -9.80423
    endloop
  endfacet
  facet normal 0 0 -1
    outer loop
      vertex -36 -26.2265 -9.80423
      vertex -17.0605 0.115073 -9.80423
      vertex -17.0979 0 -9.80423
    endloop
  endfacet
  facet normal 0 0 -1
    outer loop
      vertex -36 -26.2265 -9.80423
      vertex -17.0979 0 -9.80423
      vertex -16.7346 -1.11803 -9.80423
    endloop
  endfacet
  facet normal 0 0 -1
    outer loop
      vertex -36 -26.2265 -9.80423
      vertex -16.7346 -1.11803 -9.80423
      vertex -16.6972 -1.23311 -9.80423
    endloop
  endfacet
  facet normal 0 0 -1
    outer loop
      vertex -36 -26.2265 -9.80423
      vertex -16.6972 -1.23311 -9.80423
      vertex -15.7462 -1.92409 -9.80423
    endloop
  endfacet
  facet normal 0 0 -1
    outer loop
      vertex -36 -26.2265 -9.80423
      vertex -15.7462 -1.92409 -9.80423
      vertex -15.6483 -1.99521 -9.80423
    endloop
  endfacet
  facet normal 0 0 -1
    outer loop
      vertex -36 -26.2265 -9.80423
      vertex -15.6483 -1.99521 -9.80423
      vertex -14.3517 -1.99521 -9.80423
    endloop
  endfacet
  facet normal 0 0 -1
    outer loop
      vertex -36 -26.2265 -9.80423
      vertex -14.3517 -1.99521 -9.80423
      vertex -13.4007 -1.30423 -9.80423
    endloop
  endfacet
  facet normal 0 0 -1
    outer loop
      vertex -36 -26.2265 -9.80423
      vertex -13.4007 -1.30423 -9.80423
      vertex -13.3028 -1.23311 -9.80423
    endloop
  endfacet
  facet normal 0 0 -1
    outer loop
      vertex -36 -26.2265 -9.80423
      vertex -13.3028 -1.23311 -9.80423
      vertex 34.618 35.6756 -9.80423
    endloop
  endfacet
  facet normal 0 0 -1
    outer loop
      vertex -13.2654 1.11803 -9.80423
      vertex 34.618 35.6756 -9.80423
      vertex -12.9021 0 -9.80423
    endloop
  endfacet
  facet normal 0 0 -1
    outer loop
      vertex -12.9395 -0.115073 -9.80423
      vertex -12.9021 0 -9.80423
      vertex 34.618 35.6756 -9.80423
    endloop
  endfacet
  facet normal 0 0 -1
    outer loop
      vertex -13.3028 1.23311 -9.80423
      vertex 34.618 35.6756 -9.80423
      vertex -13.2654 1.11803 -9.80423
    endloop
  endfacet
  facet normal 0 0 -1
    outer loop
      vertex -14.2538 1.92409 -9.80423
      vertex 34.618 35.6756 -9.80423
      vertex -13.3028 1.23311 -9.80423
    endloop
  endfacet
  facet normal 0 0 -1
    outer loop
      vertex -14.3517 1.99521 -9.80423
      vertex 34.618 35.6756 -9.80423
      vertex -14.2538 1.92409 -9.80423
    endloop
  endfacet
  facet normal 0 0 -1
    outer loop
      vertex -15.6483 1.99521 -9.80423
      vertex -35.382 26.6756 -9.80423
      vertex -14.3517 1.99521 -9.80423
    endloop
  endfacet
  facet normal 0 0 -1
    outer loop
      vertex 9.25383 -1.92409 -9.80423
      vertex 35 -35.6756 -9.80423
      vertex 8.30277 -1.23311 -9.80423
    endloop
  endfacet
  facet normal 0 0 -1
    outer loop
      vertex -16.5993 1.30423 -9.80423
      vertex -35.382 26.6756 -9.80423
      vertex -15.6483 1.99521 -9.80423
    endloop
  endfacet
  facet normal 0 0 -1
    outer loop
      vertex -16.6972 1.23311 -9.80423
      vertex -35.382 26.6756 -9.80423
      vertex -16.5993 1.30423 -9.80423
    endloop
  endfacet
  facet normal 0 0 -1
    outer loop
      vertex -17.0605 0.115073 -9.80423
      vertex -35.382 26.6756 -9.80423
      vertex -16.6972 1.23311 -9.80423
    endloop
  endfacet
  facet normal 0 0 -1
    outer loop
      vertex -36 -26.2265 -9.80423
      vertex 7.9395 0.115073 -9.80423
      vertex 7.90211 0 -9.80423
    endloop
  endfacet
  facet normal 0 0 -1
    outer loop
      vertex -36 -26.2265 -9.80423
      vertex 7.90211 0 -9.80423
      vertex 8.26538 -1.11803 -9.80423
    endloop
  endfacet
  facet normal 0 0 -1
    outer loop
      vertex -36 -26.2265 -9.80423
      vertex 8.26538 -1.11803 -9.80423
      vertex 8.30277 -1.23311 -9.80423
    endloop
  endfacet
  facet normal 0 0 -1
    outer loop
      vertex -36 -26.2265 -9.80423
      vertex 8.30277 -1.23311 -9.80423
      vertex 35 -35.6756 -9.80423
    endloop
  endfacet
  facet normal 0 0 -1
    outer loop
      vertex 10.6483 -1.99521 -9.80423
      vertex 35 -35.6756 -9.80423
      vertex 9.35172 -1.99521 -9.80423
    endloop
  endfacet
  facet normal 0 0 -1
    outer loop
      vertex 9.25383 -1.92409 -9.80423
      vertex 9.35172 -1.99521 -9.80423
      vertex 35 -35.6756 -9.80423
    endloop
  endfacet
  facet normal 0 0 -1
    outer loop
      vertex 9.35172 1.99521 -9.80423
      vertex 35 35.6756 -9.80423
      vertex 10.6483 1.99521 -9.80423
    endloop
  endfacet
  facet normal 0 0 -1
    outer loop
      vertex 12.0605 -0.115073 -9.80423
      vertex 35 35.6756 -9.80423
      vertex 11.6972 -1.23311 -9.80423
    endloop
  endfacet
  facet normal 0 0 -1
    outer loop
      vertex 11.7346 1.11803 -9.80423
      vertex 35 35.6756 -9.80423
      vertex 12.0979 0 -9.80423
    endloop
  endfacet
  facet normal 0 0 -1
    outer loop
      vertex 10.6483 -1.99521 -9.80423
      vertex 11.5993 -1.30423 -9.80423
      vertex 35 -35.6756 -9.80423
    endloop
  endfacet
  facet normal 0 0 -1
    outer loop
      vertex 11.5993 -1.30423 -9.80423
      vertex 11.6972 -1.23311 -9.80423
      vertex 35 -35.6756 -9.80423
    endloop
  endfacet
  facet normal 0 0 -1
    outer loop
      vertex 12.0979 0 -9.80423
      vertex 35 35.6756 -9.80423
      vertex 12.0605 -0.115073 -9.80423
    endloop
  endfacet
  facet normal 0 0 -1
    outer loop
      vertex 11.6972 1.23311 -9.80423
      vertex 35 35.6756 -9.80423
      vertex 11.7346 1.11803 -9.80423
    endloop
  endfacet
  facet normal 0 0 -1
    outer loop
      vertex 10.7462 1.92409 -9.80423
      vertex 35 35.6756 -9.80423
      vertex 11.6972 1.23311 -9.80423
    endloop
  endfacet
  facet normal 0 0 -1
    outer loop
      vertex 10.6483 1.99521 -9.80423
      vertex 35 35.6756 -9.80423
      vertex 10.7462 1.92409 -9.80423
    endloop
  endfacet
  facet normal 0 0 -1
    outer loop
      vertex -36 -26.2265 -9.80423
      vertex 35 35.6756 -9.80423
      vertex 9.35172 1.99521 -9.80423
    endloop
  endfacet
  facet normal 0 0 -1
    outer loop
      vertex -36 -26.2265 -9.80423
      vertex 9.35172 1.99521 -9.80423
      vertex 8.40066 1.30423 -9.80423
    endloop
  endfacet
  facet normal 0 0 -1
    outer loop
      vertex -36 -26.2265 -9.80423
      vertex 8.40066 1.30423 -9.80423
      vertex 8.30277 1.23311 -9.80423
    endloop
  endfacet
  facet normal 0 0 -1
    outer loop
      vertex -36 -26.2265 -9.80423
      vertex 8.30277 1.23311 -9.80423
      vertex 7.9395 0.115073 -9.80423
    endloop
  endfacet
  facet normal 0 0 -1
    outer loop
      vertex -12.9395 -0.115073 -9.80423
      vertex 34.618 35.6756 -9.80423
      vertex -13.3028 -1.23311 -9.80423
    endloop
  endfacet
  facet normal -0.57735 0.187592 -0.794654
    outer loop
      vertex -36.2361 25.5 -9.80423
      vertex -37.618 27.4021 -8.35114
      vertex -36 26.2265 -9.80423
    endloop
  endfacet
  facet normal -0.356822 0.491123 -0.794654
    outer loop
      vertex -36 26.2265 -9.80423
      vertex -37.618 27.4021 -8.35114
      vertex -36 28.5777 -8.35114
    endloop
  endfacet
  facet normal -0.561583 0.772953 -0.295242
    outer loop
      vertex -36 28.5777 -8.35114
      vertex -37.618 27.4021 -8.35114
      vertex -36.2361 29.3042 -6
    endloop
  endfacet
  facet normal -0.12148 0.944841 -0.304169
    outer loop
      vertex -36.2361 29.3042 -6
      vertex 33.7639 38.3042 -6
      vertex -36 28.5777 -8.35114
    endloop
  endfacet
  facet normal -0.12148 0.944841 -0.304169
    outer loop
      vertex -36 28.5777 -8.35114
      vertex 33.7639 38.3042 -6
      vertex 34 37.5777 -8.35114
    endloop
  endfacet
  facet normal -0.127522 0.991836 0
    outer loop
      vertex -36.2361 29.3042 -6
      vertex -36.2361 29.3042 6
      vertex 33.7639 38.3042 -6
    endloop
  endfacet
  facet normal -0.127522 0.991836 0
    outer loop
      vertex 33.7639 38.3042 -6
      vertex -36.2361 29.3042 6
      vertex 33.7639 38.3042 6
    endloop
  endfacet
  facet normal -0.12148 0.944841 0.304169
    outer loop
      vertex -36.2361 29.3042 6
      vertex -36 28.5777 8.35114
      vertex 33.7639 38.3042 6
    endloop
  endfacet
  facet normal -0.12148 0.944841 0.304169
    outer loop
      vertex 33.7639 38.3042 6
      vertex -36 28.5777 8.35114
      vertex 34 37.5777 8.35114
    endloop
  endfacet
  facet normal -0.0758113 0.589643 0.804098
    outer loop
      vertex 34 37.5777 8.35114
      vertex -36 28.5777 8.35114
      vertex -35.382 26.6756 9.80423
    endloop
  endfacet
  facet normal -0.0758113 0.589643 0.804098
    outer loop
      vertex 34.618 35.6756 9.80423
      vertex 34 37.5777 8.35114
      vertex -35.382 26.6756 9.80423
    endloop
  endfacet
  facet normal 0 0 1
    outer loop
      vertex -36.2361 25.5 9.80423
      vertex -36.2361 -25.5 9.80423
      vertex -36 -26.2265 9.80423
    endloop
  endfacet
  facet normal 0 0 1
    outer loop
      vertex -35 -17.5 9.80423
      vertex -36.2361 25.5 9.80423
      vertex -35.382 -26.6756 9.80423
    endloop
  endfacet
  facet normal 0 0 1
    outer loop
      vertex -35.382 -26.6756 9.80423
      vertex -36.2361 25.5 9.80423
      vertex -36 -26.2265 9.80423
    endloop
  endfacet
  facet normal 0 0 1
    outer loop
      vertex 34.618 -35.6756 9.80423
      vertex -35 -17.5 9.80423
      vertex -35.382 -26.6756 9.80423
    endloop
  endfacet
  facet normal 0 0 1
    outer loop
      vertex -35 17.5 9.80423
      vertex -36.2361 25.5 9.80423
      vertex -35 -17.5 9.80423
    endloop
  endfacet
  facet normal 0 0 1
    outer loop
      vertex -35 17.5 9.80423
      vertex 35 26.5 9.80423
      vertex -36.2361 25.5 9.80423
    endloop
  endfacet
  facet normal 0 0 1
    outer loop
      vertex 35 35.6756 9.80423
      vertex -36.2361 25.5 9.80423
      vertex 35 26.5 9.80423
    endloop
  endfacet
  facet normal 0 0 1
    outer loop
      vertex 34.618 35.6756 9.80423
      vertex -36.2361 25.5 9.80423
      vertex 35 35.6756 9.80423
    endloop
  endfacet
  facet normal 0 0 1
    outer loop
      vertex -35.382 26.6756 9.80423
      vertex -36.2361 25.5 9.80423
      vertex 34.618 35.6756 9.80423
    endloop
  endfacet
  facet normal 0 0 1
    outer loop
      vertex -36 26.2265 9.80423
      vertex -36.2361 25.5 9.80423
      vertex -35.382 26.6756 9.80423
    endloop
  endfacet
  facet normal 0 0 1
    outer loop
      vertex 35 -26.5 9.80423
      vertex 34.618 -35.6756 9.80423
      vertex 35 -35.6756 9.80423
    endloop
  endfacet
  facet normal 0 0 1
    outer loop
      vertex 35 -26.5 9.80423
      vertex -35 -17.5 9.80423
      vertex 34.618 -35.6756 9.80423
    endloop
  endfacet
  facet normal -0.356822 -0.491123 0.794654
    outer loop
      vertex -36 -26.2265 9.80423
      vertex -36 -28.5777 8.35114
      vertex -35.382 -26.6756 9.80423
    endloop
  endfacet
  facet normal -0.0758113 -0.589643 0.804098
    outer loop
      vertex -35.382 -26.6756 9.80423
      vertex -36 -28.5777 8.35114
      vertex 34 -37.5777 8.35114
    endloop
  endfacet
  facet normal -0.0758113 -0.589643 0.804098
    outer loop
      vertex 34.618 -35.6756 9.80423
      vertex -35.382 -26.6756 9.80423
      vertex 34 -37.5777 8.35114
    endloop
  endfacet
  facet normal 0 -0.607062 0.794654
    outer loop
      vertex 34.618 -35.6756 9.80423
      vertex 34 -37.5777 8.35114
      vertex 35 -37.5777 8.35114
    endloop
  endfacet
  facet normal 0 -0.607062 0.794654
    outer loop
      vertex 35 -35.6756 9.80423
      vertex 34.618 -35.6756 9.80423
      vertex 35 -37.5777 8.35114
    endloop
  endfacet
  facet normal 0 -0.955423 0.295242
    outer loop
      vertex 34 -37.5777 8.35114
      vertex 33.7639 -38.3042 6
      vertex 35 -38.3042 6
    endloop
  endfacet
  facet normal 0 -0.955423 0.295242
    outer loop
      vertex 35 -37.5777 8.35114
      vertex 34 -37.5777 8.35114
      vertex 35 -38.3042 6
    endloop
  endfacet
  facet normal 0 -1 0
    outer loop
      vertex 33.7639 -38.3042 6
      vertex 33.7639 -38.3042 -6
      vertex 35 -38.3042 -6
    endloop
  endfacet
  facet normal 0 -1 0
    outer loop
      vertex 35 -38.3042 6
      vertex 33.7639 -38.3042 6
      vertex 35 -38.3042 -6
    endloop
  endfacet
  facet normal 0 -0.955423 -0.295242
    outer loop
      vertex 35 -38.3042 -6
      vertex 33.7639 -38.3042 -6
      vertex 34 -37.5777 -8.35114
    endloop
  endfacet
  facet normal 0 -0.955423 -0.295242
    outer loop
      vertex 35 -37.5777 -8.35114
      vertex 35 -38.3042 -6
      vertex 34 -37.5777 -8.35114
    endloop
  endfacet
  facet normal 0 -0.607062 -0.794654
    outer loop
      vertex 34 -37.5777 -8.35114
      vertex 34.618 -35.6756 -9.80423
      vertex 35 -37.5777 -8.35114
    endloop
  endfacet
  facet normal 0 -0.607062 -0.794654
    outer loop
      vertex 35 -37.5777 -8.35114
      vertex 34.618 -35.6756 -9.80423
      vertex 35 -35.6756 -9.80423
    endloop
  endfacet
  facet normal 1 0 0
    outer loop
      vertex 35 -38.3042 6
      vertex 35 -38.3042 -6
      vertex 35 -37.5777 -8.35114
    endloop
  endfacet
  facet normal 1 0 0
    outer loop
      vertex 35 -34.5 -6
      vertex 35 -38.3042 6
      vertex 35 -35.6756 -9.80423
    endloop
  endfacet
  facet normal 1 0 0
    outer loop
      vertex 35 -35.6756 -9.80423
      vertex 35 -38.3042 6
      vertex 35 -37.5777 -8.35114
    endloop
  endfacet
  facet normal 1 0 0
    outer loop
      vertex 35 -34.5 -6
      vertex 35 -34.5 6
      vertex 35 -38.3042 6
    endloop
  endfacet
  facet normal 1 0 0
    outer loop
      vertex 35 -26.5 6
      vertex 35 -26.5 9.80423
      vertex 35 -34.5 6
    endloop
  endfacet
  facet normal 1 0 0
    outer loop
      vertex 35 38.3042 6
      vertex 35 34.5 6
      vertex 35 38.3042 -6
    endloop
  endfacet
  facet normal 1 0 0
    outer loop
      vertex 35 34.5 6
      vertex 35 34.5 -6
      vertex 35 38.3042 -6
    endloop
  endfacet
  facet normal 1 0 0
    outer loop
      vertex 35 34.5 -6
      vertex 35 35.6756 -9.80423
      vertex 35 37.5777 -8.35114
    endloop
  endfacet
  facet normal 1 0 0
    outer loop
      vertex 35 37.5777 8.35114
      vertex 35 34.5 6
      vertex 35 38.3042 6
    endloop
  endfacet
  facet normal 1 0 0
    outer loop
      vertex 35 37.5777 8.35114
      vertex 35 26.5 6
      vertex 35 34.5 6
    endloop
  endfacet
  facet normal 1 0 0
    outer loop
      vertex 35 38.3042 -6
      vertex 35 34.5 -6
      vertex 35 37.5777 -8.35114
    endloop
  endfacet
  facet normal 1 0 0
    outer loop
      vertex 35 -34.5 6
      vertex 35 -26.5 9.80423
      vertex 35 -38.3042 6
    endloop
  endfacet
  facet normal 1 0 0
    outer loop
      vertex 35 35.6756 -9.80423
      vertex 35 -34.5 -6
      vertex 35 -35.6756 -9.80423
    endloop
  endfacet
  facet normal 1 0 0
    outer loop
      vertex 35 34.5 -6
      vertex 35 -34.5 -6
      vertex 35 35.6756 -9.80423
    endloop
  endfacet
  facet normal 1 0 0
    outer loop
      vertex 35 -35.6756 9.80423
      vertex 35 -38.3042 6
      vertex 35 -26.5 9.80423
    endloop
  endfacet
  facet normal 1 0 0
    outer loop
      vertex 35 -37.5777 8.35114
      vertex 35 -38.3042 6
      vertex 35 -35.6756 9.80423
    endloop
  endfacet
  facet normal 1 0 0
    outer loop
      vertex 35 26.5 9.80423
      vertex 35 37.5777 8.35114
      vertex 35 35.6756 9.80423
    endloop
  endfacet
  facet normal 1 0 0
    outer loop
      vertex 35 26.5 9.80423
      vertex 35 26.5 6
      vertex 35 37.5777 8.35114
    endloop
  endfacet
  facet normal 0 0.607062 -0.794654
    outer loop
      vertex 34 37.5777 -8.35114
      vertex 35 37.5777 -8.35114
      vertex 34.618 35.6756 -9.80423
    endloop
  endfacet
  facet normal 0 0.607062 -0.794654
    outer loop
      vertex 34.618 35.6756 -9.80423
      vertex 35 37.5777 -8.35114
      vertex 35 35.6756 -9.80423
    endloop
  endfacet
  facet normal -0.0758113 0.589643 -0.804098
    outer loop
      vertex -36 28.5777 -8.35114
      vertex 34 37.5777 -8.35114
      vertex -35.382 26.6756 -9.80423
    endloop
  endfacet
  facet normal -0.0758113 0.589643 -0.804098
    outer loop
      vertex -35.382 26.6756 -9.80423
      vertex 34 37.5777 -8.35114
      vertex 34.618 35.6756 -9.80423
    endloop
  endfacet
  facet normal -0.356822 0.491123 -0.794654
    outer loop
      vertex -35.382 26.6756 -9.80423
      vertex -36 26.2265 -9.80423
      vertex -36 28.5777 -8.35114
    endloop
  endfacet
  facet normal 0.858892 -0.279071 0.429446
    outer loop
      vertex -17.0979 0 -9.80423
      vertex -17.0605 0.115073 -9.80423
      vertex -18.2361 2.35114 -6
    endloop
  endfacet
  facet normal 0.858892 -0.279071 0.429446
    outer loop
      vertex -19 0 -6
      vertex -17.0979 0 -9.80423
      vertex -18.2361 2.35114 -6
    endloop
  endfacet
  facet normal 0.858892 -0.279071 0.429446
    outer loop
      vertex -17.0605 0.115073 -9.80423
      vertex -16.6972 1.23311 -9.80423
      vertex -18.2361 2.35114 -6
    endloop
  endfacet
  facet normal 0.530824 -0.730617 0.429446
    outer loop
      vertex -16.6972 1.23311 -9.80423
      vertex -16.5993 1.30423 -9.80423
      vertex -16.2361 3.80423 -6
    endloop
  endfacet
  facet normal 0.530824 -0.730617 0.429446
    outer loop
      vertex -18.2361 2.35114 -6
      vertex -16.6972 1.23311 -9.80423
      vertex -16.2361 3.80423 -6
    endloop
  endfacet
  facet normal 0.530824 -0.730617 0.429446
    outer loop
      vertex -15.6483 1.99521 -9.80423
      vertex -16.2361 3.80423 -6
      vertex -16.5993 1.30423 -9.80423
    endloop
  endfacet
  facet normal 0 -0.903093 0.429446
    outer loop
      vertex -15.6483 1.99521 -9.80423
      vertex -14.3517 1.99521 -9.80423
      vertex -13.7639 3.80423 -6
    endloop
  endfacet
  facet normal 0 -0.903093 0.429446
    outer loop
      vertex -16.2361 3.80423 -6
      vertex -15.6483 1.99521 -9.80423
      vertex -13.7639 3.80423 -6
    endloop
  endfacet
  facet normal -0.530824 -0.730617 0.429446
    outer loop
      vertex -14.2538 1.92409 -9.80423
      vertex -11.7639 2.35114 -6
      vertex -13.7639 3.80423 -6
    endloop
  endfacet
  facet normal -0.530824 -0.730617 0.429446
    outer loop
      vertex -14.3517 1.99521 -9.80423
      vertex -14.2538 1.92409 -9.80423
      vertex -13.7639 3.80423 -6
    endloop
  endfacet
  facet normal -0.530824 -0.730617 0.429446
    outer loop
      vertex -13.3028 1.23311 -9.80423
      vertex -11.7639 2.35114 -6
      vertex -14.2538 1.92409 -9.80423
    endloop
  endfacet
  facet normal -0.858892 -0.279071 0.429446
    outer loop
      vertex -11 0 -6
      vertex -11.7639 2.35114 -6
      vertex -13.2654 1.11803 -9.80423
    endloop
  endfacet
  facet normal -0.858892 -0.279071 0.429446
    outer loop
      vertex -13.2654 1.11803 -9.80423
      vertex -11.7639 2.35114 -6
      vertex -13.3028 1.23311 -9.80423
    endloop
  endfacet
  facet normal -0.858892 -0.279071 0.429446
    outer loop
      vertex -12.9021 0 -9.80423
      vertex -11 0 -6
      vertex -13.2654 1.11803 -9.80423
    endloop
  endfacet
  facet normal -0.858892 0.279071 0.429446
    outer loop
      vertex -11 0 -6
      vertex -12.9021 0 -9.80423
      vertex -11.7639 -2.35114 -6
    endloop
  endfacet
  facet normal -0.858892 0.279071 0.429446
    outer loop
      vertex -11.7639 -2.35114 -6
      vertex -12.9021 0 -9.80423
      vertex -12.9395 -0.115073 -9.80423
    endloop
  endfacet
  facet normal -0.858892 0.279071 0.429446
    outer loop
      vertex -11.7639 -2.35114 -6
      vertex -12.9395 -0.115073 -9.80423
      vertex -13.3028 -1.23311 -9.80423
    endloop
  endfacet
  facet normal -0.530824 0.730617 0.429446
    outer loop
      vertex -13.3028 -1.23311 -9.80423
      vertex -13.4007 -1.30423 -9.80423
      vertex -11.7639 -2.35114 -6
    endloop
  endfacet
  facet normal -0.530824 0.730617 0.429446
    outer loop
      vertex -11.7639 -2.35114 -6
      vertex -13.4007 -1.30423 -9.80423
      vertex -13.7639 -3.80423 -6
    endloop
  endfacet
  facet normal -0.530824 0.730617 0.429446
    outer loop
      vertex -13.7639 -3.80423 -6
      vertex -13.4007 -1.30423 -9.80423
      vertex -14.3517 -1.99521 -9.80423
    endloop
  endfacet
  facet normal 0 0.903093 0.429446
    outer loop
      vertex -14.3517 -1.99521 -9.80423
      vertex -15.6483 -1.99521 -9.80423
      vertex -13.7639 -3.80423 -6
    endloop
  endfacet
  facet normal 0 0.903093 0.429446
    outer loop
      vertex -13.7639 -3.80423 -6
      vertex -15.6483 -1.99521 -9.80423
      vertex -16.2361 -3.80423 -6
    endloop
  endfacet
  facet normal 0.530824 0.730617 0.429446
    outer loop
      vertex -15.6483 -1.99521 -9.80423
      vertex -15.7462 -1.92409 -9.80423
      vertex -16.2361 -3.80423 -6
    endloop
  endfacet
  facet normal 0.530824 0.730617 0.429446
    outer loop
      vertex -16.2361 -3.80423 -6
      vertex -15.7462 -1.92409 -9.80423
      vertex -18.2361 -2.35114 -6
    endloop
  endfacet
  facet normal 0.530824 0.730617 0.429446
    outer loop
      vertex -15.7462 -1.92409 -9.80423
      vertex -16.6972 -1.23311 -9.80423
      vertex -18.2361 -2.35114 -6
    endloop
  endfacet
  facet normal 0.858892 0.279071 0.429446
    outer loop
      vertex -18.2361 -2.35114 -6
      vertex -16.6972 -1.23311 -9.80423
      vertex -16.7346 -1.11803 -9.80423
    endloop
  endfacet
  facet normal 0.858892 0.279071 0.429446
    outer loop
      vertex -19 0 -6
      vertex -18.2361 -2.35114 -6
      vertex -16.7346 -1.11803 -9.80423
    endloop
  endfacet
  facet normal 0.858892 0.279071 0.429446
    outer loop
      vertex -16.7346 -1.11803 -9.80423
      vertex -17.0979 0 -9.80423
      vertex -19 0 -6
    endloop
  endfacet
  facet normal 0.858892 -0.279071 0.429446
    outer loop
      vertex 7.90211 0 -9.80423
      vertex 7.9395 0.115073 -9.80423
      vertex 6.76393 2.35114 -6
    endloop
  endfacet
  facet normal 0.858892 -0.279071 0.429446
    outer loop
      vertex 6 0 -6
      vertex 7.90211 0 -9.80423
      vertex 6.76393 2.35114 -6
    endloop
  endfacet
  facet normal 0.858892 -0.279071 0.429446
    outer loop
      vertex 7.9395 0.115073 -9.80423
      vertex 8.30277 1.23311 -9.80423
      vertex 6.76393 2.35114 -6
    endloop
  endfacet
  facet normal 0.530824 -0.730617 0.429446
    outer loop
      vertex 8.30277 1.23311 -9.80423
      vertex 8.40066 1.30423 -9.80423
      vertex 8.76393 3.80423 -6
    endloop
  endfacet
  facet normal 0.530824 -0.730617 0.429446
    outer loop
      vertex 6.76393 2.35114 -6
      vertex 8.30277 1.23311 -9.80423
      vertex 8.76393 3.80423 -6
    endloop
  endfacet
  facet normal 0.530824 -0.730617 0.429446
    outer loop
      vertex 9.35172 1.99521 -9.80423
      vertex 8.76393 3.80423 -6
      vertex 8.40066 1.30423 -9.80423
    endloop
  endfacet
  facet normal 0 -0.903093 0.429446
    outer loop
      vertex 9.35172 1.99521 -9.80423
      vertex 10.6483 1.99521 -9.80423
      vertex 11.2361 3.80423 -6
    endloop
  endfacet
  facet normal 0 -0.903093 0.429446
    outer loop
      vertex 8.76393 3.80423 -6
      vertex 9.35172 1.99521 -9.80423
      vertex 11.2361 3.80423 -6
    endloop
  endfacet
  facet normal -0.530824 -0.730617 0.429446
    outer loop
      vertex 10.7462 1.92409 -9.80423
      vertex 13.2361 2.35114 -6
      vertex 11.2361 3.80423 -6
    endloop
  endfacet
  facet normal -0.530824 -0.730617 0.429446
    outer loop
      vertex 10.6483 1.99521 -9.80423
      vertex 10.7462 1.92409 -9.80423
      vertex 11.2361 3.80423 -6
    endloop
  endfacet
  facet normal -0.530824 -0.730617 0.429446
    outer loop
      vertex 11.6972 1.23311 -9.80423
      vertex 13.2361 2.35114 -6
      vertex 10.7462 1.92409 -9.80423
    endloop
  endfacet
  facet normal -0.858892 -0.279071 0.429446
    outer loop
      vertex 14 0 -6
      vertex 13.2361 2.35114 -6
      vertex 11.7346 1.11803 -9.80423
    endloop
  endfacet
  facet normal -0.858892 -0.279071 0.429446
    outer loop
      vertex 11.7346 1.11803 -9.80423
      vertex 13.2361 2.35114 -6
      vertex 11.6972 1.23311 -9.80423
    endloop
  endfacet
  facet normal -0.858892 -0.279071 0.429446
    outer loop
      vertex 12.0979 0 -9.80423
      vertex 14 0 -6
      vertex 11.7346 1.11803 -9.80423
    endloop
  endfacet
  facet normal -0.858892 0.279071 0.429446
    outer loop
      vertex 14 0 -6
      vertex 12.0979 0 -9.80423
      vertex 13.2361 -2.35114 -6
    endloop
  endfacet
  facet normal -0.858892 0.279071 0.429446
    outer loop
      vertex 13.2361 -2.35114 -6
      vertex 12.0979 0 -9.80423
      vertex 12.0605 -0.115073 -9.80423
    endloop
  endfacet
  facet normal -0.858892 0.279071 0.429446
    outer loop
      vertex 13.2361 -2.35114 -6
      vertex 12.0605 -0.115073 -9.80423
      vertex 11.6972 -1.23311 -9.80423
    endloop
  endfacet
  facet normal -0.530824 0.730617 0.429446
    outer loop
      vertex 11.6972 -1.23311 -9.80423
      vertex 11.5993 -1.30423 -9.80423
      vertex 13.2361 -2.35114 -6
    endloop
  endfacet
  facet normal -0.530824 0.730617 0.429446
    outer loop
      vertex 13.2361 -2.35114 -6
      vertex 11.5993 -1.30423 -9.80423
      vertex 11.2361 -3.80423 -6
    endloop
  endfacet
  facet normal -0.530824 0.730617 0.429446
    outer loop
      vertex 11.2361 -3.80423 -6
      vertex 11.5993 -1.30423 -9.80423
      vertex 10.6483 -1.99521 -9.80423
    endloop
  endfacet
  facet normal 0 0.903093 0.429446
    outer loop
      vertex 10.6483 -1.99521 -9.80423
      vertex 9.35172 -1.99521 -9.80423
      vertex 11.2361 -3.80423 -6
    endloop
  endfacet
  facet normal 0 0.903093 0.429446
    outer loop
      vertex 11.2361 -3.80423 -6
      vertex 9.35172 -1.99521 -9.80423
      vertex 8.76393 -3.80423 -6
    endloop
  endfacet
  facet normal 0.530824 0.730617 0.429446
    outer loop
      vertex 9.35172 -1.99521 -9.80423
      vertex 9.25383 -1.92409 -9.80423
      vertex 8.76393 -3.80423 -6
    endloop
  endfacet
  facet normal 0.530824 0.730617 0.429446
    outer loop
      vertex 8.76393 -3.80423 -6
      vertex 9.25383 -1.92409 -9.80423
      vertex 6.76393 -2.35114 -6
    endloop
  endfacet
  facet normal 0.530824 0.730617 0.429446
    outer loop
      vertex 9.25383 -1.92409 -9.80423
      vertex 8.30277 -1.23311 -9.80423
      vertex 6.76393 -2.35114 -6
    endloop
  endfacet
  facet normal 0.858892 0.279071 0.429446
    outer loop
      vertex 6.76393 -2.35114 -6
      vertex 8.30277 -1.23311 -9.80423
      vertex 8.26538 -1.11803 -9.80423
    endloop
  endfacet
  facet normal 0.858892 0.279071 0.429446
    outer loop
      vertex 6 0 -6
      vertex 6.76393 -2.35114 -6
      vertex 8.26538 -1.11803 -9.80423
    endloop
  endfacet
  facet normal 0.858892 0.279071 0.429446
    outer loop
      vertex 8.26538 -1.11803 -9.80423
      vertex 7.90211 0 -9.80423
      vertex 6 0 -6
    endloop
  endfacet
  facet normal 0 0.955423 -0.295242
    outer loop
      vertex 33.7639 38.3042 -6
      vertex 35 38.3042 -6
      vertex 34 37.5777 -8.35114
    endloop
  endfacet
  facet normal 0 0.955423 -0.295242
    outer loop
      vertex 34 37.5777 -8.35114
      vertex 35 38.3042 -6
      vertex 35 37.5777 -8.35114
    endloop
  endfacet
  facet normal 0 1 0
    outer loop
      vertex 33.7639 38.3042 -6
      vertex 33.7639 38.3042 6
      vertex 35 38.3042 -6
    endloop
  endfacet
  facet normal 0 1 0
    outer loop
      vertex 35 38.3042 -6
      vertex 33.7639 38.3042 6
      vertex 35 38.3042 6
    endloop
  endfacet
  facet normal 0 0.955423 0.295242
    outer loop
      vertex 33.7639 38.3042 6
      vertex 34 37.5777 8.35114
      vertex 35 38.3042 6
    endloop
  endfacet
  facet normal 0 0.955423 0.295242
    outer loop
      vertex 35 38.3042 6
      vertex 34 37.5777 8.35114
      vertex 35 37.5777 8.35114
    endloop
  endfacet
  facet normal 0 0.607062 0.794654
    outer loop
      vertex 35 37.5777 8.35114
      vertex 34 37.5777 8.35114
      vertex 34.618 35.6756 9.80423
    endloop
  endfacet
  facet normal 0 0.607062 0.794654
    outer loop
      vertex 35 35.6756 9.80423
      vertex 35 37.5777 8.35114
      vertex 34.618 35.6756 9.80423
    endloop
  endfacet
  facet normal 0.127522 -0.991836 0
    outer loop
      vertex 35 26.5 6
      vertex 35 26.5 9.80423
      vertex -35 17.5 9.80423
    endloop
  endfacet
  facet normal 0.127522 -0.991836 0
    outer loop
      vertex -35 17.5 6
      vertex 35 26.5 6
      vertex -35 17.5 9.80423
    endloop
  endfacet
  facet normal 1 0 0
    outer loop
      vertex -35 -17.5 6
      vertex -35 -25.5 6
      vertex -35 25.5 -6
    endloop
  endfacet
  facet normal 1 0 0
    outer loop
      vertex -35 25.5 -6
      vertex -35 25.5 6
      vertex -35 17.5 6
    endloop
  endfacet
  facet normal 1 0 0
    outer loop
      vertex -35 -17.5 9.80423
      vertex -35 25.5 -6
      vertex -35 17.5 6
    endloop
  endfacet
  facet normal 1 0 0
    outer loop
      vertex -35 17.5 9.80423
      vertex -35 -17.5 9.80423
      vertex -35 17.5 6
    endloop
  endfacet
  facet normal 1 0 0
    outer loop
      vertex -35 -17.5 9.80423
      vertex -35 -17.5 6
      vertex -35 25.5 -6
    endloop
  endfacet
  facet normal 1 0 0
    outer loop
      vertex -35 -25.5 6
      vertex -35 -25.5 -6
      vertex -35 25.5 -6
    endloop
  endfacet
  facet normal 0.127522 0.991836 0
    outer loop
      vertex 35 -26.5 9.80423
      vertex 35 -26.5 6
      vertex -35 -17.5 9.80423
    endloop
  endfacet
  facet normal 0.127522 0.991836 0
    outer loop
      vertex -35 -17.5 9.80423
      vertex 35 -26.5 6
      vertex -35 -17.5 6
    endloop
  endfacet
  facet normal 0 0 -1
    outer loop
      vertex 35 -26.5 6
      vertex 35 -34.5 6
      vertex -35 -17.5 6
    endloop
  endfacet
  facet normal 0 0 -1
    outer loop
      vertex -35 -17.5 6
      vertex 35 -34.5 6
      vertex -35 -25.5 6
    endloop
  endfacet
  facet normal 0.127522 0.991836 0
    outer loop
      vertex 35 -34.5 6
      vertex 35 -34.5 -6
      vertex -35 -25.5 6
    endloop
  endfacet
  facet normal 0.127522 0.991836 0
    outer loop
      vertex -35 -25.5 6
      vertex 35 -34.5 -6
      vertex -35 -25.5 -6
    endloop
  endfacet
  facet normal 0 0 1
    outer loop
      vertex 6.76393 2.35114 -6
      vertex 35 34.5 -6
      vertex -35 25.5 -6
    endloop
  endfacet
  facet normal 0 0 1
    outer loop
      vertex -11.7639 2.35114 -6
      vertex 35 -34.5 -6
      vertex -35 25.5 -6
    endloop
  endfacet
  facet normal 0 0 1
    outer loop
      vertex -35 -25.5 -6
      vertex -19 0 -6
      vertex -35 25.5 -6
    endloop
  endfacet
  facet normal 0 0 1
    outer loop
      vertex -19 0 -6
      vertex -18.2361 2.35114 -6
      vertex -35 25.5 -6
    endloop
  endfacet
  facet normal 0 0 1
    outer loop
      vertex -18.2361 2.35114 -6
      vertex -16.2361 3.80423 -6
      vertex -35 25.5 -6
    endloop
  endfacet
  facet normal 0 0 1
    outer loop
      vertex -11.7639 -2.35114 -6
      vertex -13.7639 -3.80423 -6
      vertex 35 -34.5 -6
    endloop
  endfacet
  facet normal 0 0 1
    outer loop
      vertex -16.2361 3.80423 -6
      vertex -13.7639 3.80423 -6
      vertex -35 25.5 -6
    endloop
  endfacet
  facet normal 0 0 1
    outer loop
      vertex -13.7639 3.80423 -6
      vertex -11.7639 2.35114 -6
      vertex -35 25.5 -6
    endloop
  endfacet
  facet normal 0 0 1
    outer loop
      vertex 14 0 -6
      vertex 13.2361 -2.35114 -6
      vertex 16 -6 -6
    endloop
  endfacet
  facet normal 0 0 1
    outer loop
      vertex 8.76393 3.80423 -6
      vertex 11.2361 3.80423 -6
      vertex 35 34.5 -6
    endloop
  endfacet
  facet normal 0 0 1
    outer loop
      vertex -35 -25.5 -6
      vertex 35 -34.5 -6
      vertex -13.7639 -3.80423 -6
    endloop
  endfacet
  facet normal 0 0 1
    outer loop
      vertex -35 -25.5 -6
      vertex -13.7639 -3.80423 -6
      vertex -16.2361 -3.80423 -6
    endloop
  endfacet
  facet normal 0 0 1
    outer loop
      vertex -35 -25.5 -6
      vertex -18.2361 -2.35114 -6
      vertex -19 0 -6
    endloop
  endfacet
  facet normal 0 0 1
    outer loop
      vertex -35 -25.5 -6
      vertex -16.2361 -3.80423 -6
      vertex -18.2361 -2.35114 -6
    endloop
  endfacet
  facet normal 0 0 1
    outer loop
      vertex 6.76393 -2.35114 -6
      vertex 6 0 -6
      vertex -35 25.5 -6
    endloop
  endfacet
  facet normal 0 0 1
    outer loop
      vertex 6 0 -6
      vertex 6.76393 2.35114 -6
      vertex -35 25.5 -6
    endloop
  endfacet
  facet normal 0 0 1
    outer loop
      vertex 8.76393 3.80423 -6
      vertex 35 34.5 -6
      vertex 6.76393 2.35114 -6
    endloop
  endfacet
  facet normal 0 0 1
    outer loop
      vertex 13.2361 2.35114 -6
      vertex 35 34.5 -6
      vertex 11.2361 3.80423 -6
    endloop
  endfacet
  facet normal 0 0 1
    outer loop
      vertex 16 6 -6
      vertex 35 34.5 -6
      vertex 13.2361 2.35114 -6
    endloop
  endfacet
  facet normal 0 0 1
    outer loop
      vertex 16 -6 -6
      vertex 16 6 -6
      vertex 13.2361 2.35114 -6
    endloop
  endfacet
  facet normal 0 0 1
    outer loop
      vertex 22 -6 -6
      vertex 16 -6 -6
      vertex 35 -34.5 -6
    endloop
  endfacet
  facet normal 0 0 1
    outer loop
      vertex 16 -6 -6
      vertex 13.2361 2.35114 -6
      vertex 14 0 -6
    endloop
  endfacet
  facet normal 0 0 1
    outer loop
      vertex 35 -34.5 -6
      vertex 13.2361 -2.35114 -6
      vertex 11.2361 -3.80423 -6
    endloop
  endfacet
  facet normal 0 0 1
    outer loop
      vertex 35 -34.5 -6
      vertex 8.76393 -3.80423 -6
      vertex -35 25.5 -6
    endloop
  endfacet
  facet normal 0 0 1
    outer loop
      vertex 8.76393 -3.80423 -6
      vertex 6.76393 -2.35114 -6
      vertex -35 25.5 -6
    endloop
  endfacet
  facet normal 0 0 1
    outer loop
      vertex 22 6 -6
      vertex 35 34.5 -6
      vertex 16 6 -6
    endloop
  endfacet
  facet normal 0 0 1
    outer loop
      vertex 35 -34.5 -6
      vertex 35 34.5 -6
      vertex 22 6 -6
    endloop
  endfacet
  facet normal 0 0 1
    outer loop
      vertex 35 -34.5 -6
      vertex 22 6 -6
      vertex 22 -6 -6
    endloop
  endfacet
  facet normal 0 0 1
    outer loop
      vertex 35 -34.5 -6
      vertex 16 -6 -6
      vertex 13.2361 -2.35114 -6
    endloop
  endfacet
  facet normal 0 0 1
    outer loop
      vertex 11.2361 -3.80423 -6
      vertex 8.76393 -3.80423 -6
      vertex 35 -34.5 -6
    endloop
  endfacet
  facet normal 0 0 1
    outer loop
      vertex -11.7639 2.35114 -6
      vertex -11 0 -6
      vertex 35 -34.5 -6
    endloop
  endfacet
  facet normal 0 0 1
    outer loop
      vertex -11 0 -6
      vertex -11.7639 -2.35114 -6
      vertex 35 -34.5 -6
    endloop
  endfacet
  facet normal 0.127522 -0.991836 0
    outer loop
      vertex 35 34.5 -6
      vertex 35 34.5 6
      vertex -35 25.5 6
    endloop
  endfacet
  facet normal 0.127522 -0.991836 0
    outer loop
      vertex -35 25.5 -6
      vertex 35 34.5 -6
      vertex -35 25.5 6
    endloop
  endfacet
  facet normal 0 0 -1
    outer loop
      vertex 35 34.5 6
      vertex 35 26.5 6
      vertex -35 25.5 6
    endloop
  endfacet
  facet normal 0 0 -1
    outer loop
      vertex -35 25.5 6
      vertex 35 26.5 6
      vertex -35 17.5 6
    endloop
  endfacet
  facet normal 0 -1 0
    outer loop
      vertex 22 6 -8.5
      vertex 22 6 -6
      vertex 16 6 -6
    endloop
  endfacet
  facet normal 0 -1 0
    outer loop
      vertex 16 6 -8.5
      vertex 22 6 -8.5
      vertex 16 6 -6
    endloop
  endfacet
  facet normal 1 0 0
    outer loop
      vertex 16 6 -8.5
      vertex 16 6 -6
      vertex 16 -6 -6
    endloop
  endfacet
  facet normal 1 0 0
    outer loop
      vertex 16 -6 -8.5
      vertex 16 6 -8.5
      vertex 16 -6 -6
    endloop
  endfacet
  facet normal 0 1 0
    outer loop
      vertex 22 -6 -6
      vertex 22 -6 -8.5
      vertex 16 -6 -6
    endloop
  endfacet
  facet normal 0 1 0
    outer loop
      vertex 16 -6 -6
      vertex 22 -6 -8.5
      vertex 16 -6 -8.5
    endloop
  endfacet
  facet normal -1 0 0
    outer loop
      vertex 22 6 -6
      vertex 22 6 -8.5
      vertex 22 -6 -6
    endloop
  endfacet
  facet normal -1 0 0
    outer loop
      vertex 22 -6 -6
      vertex 22 6 -8.5
      vertex 22 -6 -8.5
    endloop
  endfacet
  facet normal 0 0 1
    outer loop
      vertex 22 -6 -8.5
      vertex 22 6 -8.5
      vertex 16 6 -8.5
    endloop
  endfacet
  facet normal 0 0 1
    outer loop
      vertex 16 -6 -8.5
      vertex 22 -6 -8.5
      vertex 16 6 -8.5
    endloop
  endfacet
endsolid OpenSCAD_Model
