solid OpenSCAD_Model
  facet normal -2.22045e-16 0 1
    outer loop
      vertex -6.62574 25.5 38.9508
      vertex -6.62574 -25.5 38.9508
      vertex 6.62574 -25.5 38.9508
    endloop
  endfacet
  facet normal -2.22045e-16 0 1
    outer loop
      vertex 6.62574 25.5 38.9508
      vertex -6.62574 25.5 38.9508
      vertex 6.62574 -25.5 38.9508
    endloop
  endfacet
  facet normal -2.19311e-16 -0.156434 0.987688
    outer loop
      vertex 6.62574 -25.5 38.9508
      vertex -6.62574 -25.5 38.9508
      vertex -6.62574 -26.7208 38.7574
    endloop
  endfacet
  facet normal -2.19311e-16 -0.156434 0.987688
    outer loop
      vertex 6.62574 -26.7208 38.7574
      vertex 6.62574 -25.5 38.9508
      vertex -6.62574 -26.7208 38.7574
    endloop
  endfacet
  facet normal -0.30557 -0.148952 0.940447
    outer loop
      vertex -6.62574 -26.7208 38.7574
      vertex -6.62574 -25.5 38.9508
      vertex -7.81596 -26.6013 38.3896
    endloop
  endfacet
  facet normal -0.30557 -0.148952 0.940447
    outer loop
      vertex -7.81596 -26.6013 38.3896
      vertex -6.62574 -25.5 38.9508
      vertex -7.81596 -25.5 38.564
    endloop
  endfacet
  facet normal -0.309017 0 0.951057
    outer loop
      vertex -7.81596 -25.5 38.564
      vertex -6.62574 -25.5 38.9508
      vertex -6.62574 25.5 38.9508
    endloop
  endfacet
  facet normal -0.309017 0 0.951057
    outer loop
      vertex -7.81596 25.5 38.564
      vertex -7.81596 -25.5 38.564
      vertex -6.62574 25.5 38.9508
    endloop
  endfacet
  facet normal -0.30557 0.148952 0.940447
    outer loop
      vertex -7.81596 25.5 38.564
      vertex -6.62574 25.5 38.9508
      vertex -6.62574 26.7208 38.7574
    endloop
  endfacet
  facet normal -2.19311e-16 0.156434 0.987688
    outer loop
      vertex -6.62574 26.7208 38.7574
      vertex -6.62574 25.5 38.9508
      vertex 6.62574 25.5 38.9508
    endloop
  endfacet
  facet normal -2.19311e-16 0.156434 0.987688
    outer loop
      vertex 6.62574 26.7208 38.7574
      vertex -6.62574 26.7208 38.7574
      vertex 6.62574 25.5 38.9508
    endloop
  endfacet
  facet normal 0.309017 0 0.951057
    outer loop
      vertex 6.62574 25.5 38.9508
      vertex 6.62574 -25.5 38.9508
      vertex 7.81596 -25.5 38.564
    endloop
  endfacet
  facet normal 0.309017 0 0.951057
    outer loop
      vertex 7.81596 25.5 38.564
      vertex 6.62574 25.5 38.9508
      vertex 7.81596 -25.5 38.564
    endloop
  endfacet
  facet normal 0.30557 0.148952 0.940447
    outer loop
      vertex 6.62574 26.7208 38.7574
      vertex 6.62574 25.5 38.9508
      vertex 7.81596 26.6013 38.3896
    endloop
  endfacet
  facet normal 0.30557 0.148952 0.940447
    outer loop
      vertex 7.81596 26.6013 38.3896
      vertex 6.62574 25.5 38.9508
      vertex 7.81596 25.5 38.564
    endloop
  endfacet
  facet normal 0.30557 -0.148952 0.940447
    outer loop
      vertex 7.81596 -25.5 38.564
      vertex 6.62574 -25.5 38.9508
      vertex 6.62574 -26.7208 38.7574
    endloop
  endfacet
  facet normal -1.97843e-16 -0.45399 0.891007
    outer loop
      vertex 6.62574 -26.7208 38.7574
      vertex -6.62574 -26.7208 38.7574
      vertex -6.62574 -27.8222 38.1962
    endloop
  endfacet
  facet normal -1.97843e-16 -0.45399 0.891007
    outer loop
      vertex 6.62574 -27.8222 38.1962
      vertex 6.62574 -26.7208 38.7574
      vertex -6.62574 -27.8222 38.1962
    endloop
  endfacet
  facet normal 0.30557 -0.148952 0.940447
    outer loop
      vertex 7.81596 -25.5 38.564
      vertex 6.62574 -26.7208 38.7574
      vertex 7.81596 -26.6013 38.3896
    endloop
  endfacet
  facet normal 0.30557 -0.432276 0.848389
    outer loop
      vertex 7.81596 -26.6013 38.3896
      vertex 6.62574 -26.7208 38.7574
      vertex 6.62574 -27.8222 38.1962
    endloop
  endfacet
  facet normal -0.30557 -0.432276 0.848389
    outer loop
      vertex -6.62574 -27.8222 38.1962
      vertex -6.62574 -26.7208 38.7574
      vertex -7.81596 -27.5949 37.8834
    endloop
  endfacet
  facet normal -0.30557 -0.432276 0.848389
    outer loop
      vertex -7.81596 -27.5949 37.8834
      vertex -6.62574 -26.7208 38.7574
      vertex -7.81596 -26.6013 38.3896
    endloop
  endfacet
  facet normal -0.583018 -0.368848 0.723906
    outer loop
      vertex -7.81596 -27.5949 37.8834
      vertex -7.81596 -26.6013 38.3896
      vertex -8.82843 -27.1625 37.2882
    endloop
  endfacet
  facet normal -0.583019 -0.368848 0.723906
    outer loop
      vertex -8.82843 -27.1625 37.2882
      vertex -7.81596 -26.6013 38.3896
      vertex -8.82843 -26.374 37.69
    endloop
  endfacet
  facet normal -0.583019 -0.127097 0.802456
    outer loop
      vertex -7.81596 -26.6013 38.3896
      vertex -7.81596 -25.5 38.564
      vertex -8.82843 -26.374 37.69
    endloop
  endfacet
  facet normal -0.583019 -0.127096 0.802456
    outer loop
      vertex -8.82843 -26.374 37.69
      vertex -7.81596 -25.5 38.564
      vertex -8.82843 -25.5 37.8284
    endloop
  endfacet
  facet normal -0.587785 0 0.809017
    outer loop
      vertex -8.82843 -25.5 37.8284
      vertex -7.81596 -25.5 38.564
      vertex -7.81596 25.5 38.564
    endloop
  endfacet
  facet normal -0.587785 0 0.809017
    outer loop
      vertex -8.82843 25.5 37.8284
      vertex -8.82843 -25.5 37.8284
      vertex -7.81596 25.5 38.564
    endloop
  endfacet
  facet normal -0.583019 0.127097 0.802456
    outer loop
      vertex -8.82843 25.5 37.8284
      vertex -7.81596 25.5 38.564
      vertex -7.81596 26.6013 38.3896
    endloop
  endfacet
  facet normal -0.30557 0.148952 0.940447
    outer loop
      vertex -7.81596 25.5 38.564
      vertex -6.62574 26.7208 38.7574
      vertex -7.81596 26.6013 38.3896
    endloop
  endfacet
  facet normal -1.97843e-16 0.45399 0.891007
    outer loop
      vertex -6.62574 27.8222 38.1962
      vertex -6.62574 26.7208 38.7574
      vertex 6.62574 26.7208 38.7574
    endloop
  endfacet
  facet normal -1.97843e-16 0.45399 0.891007
    outer loop
      vertex 6.62574 27.8222 38.1962
      vertex -6.62574 27.8222 38.1962
      vertex 6.62574 26.7208 38.7574
    endloop
  endfacet
  facet normal -0.30557 0.432276 0.848389
    outer loop
      vertex -7.81596 26.6013 38.3896
      vertex -6.62574 26.7208 38.7574
      vertex -6.62574 27.8222 38.1962
    endloop
  endfacet
  facet normal 0.30557 0.432276 0.848389
    outer loop
      vertex 6.62574 27.8222 38.1962
      vertex 6.62574 26.7208 38.7574
      vertex 7.81596 27.5949 37.8834
    endloop
  endfacet
  facet normal 0.30557 0.432276 0.848389
    outer loop
      vertex 7.81596 27.5949 37.8834
      vertex 6.62574 26.7208 38.7574
      vertex 7.81596 26.6013 38.3896
    endloop
  endfacet
  facet normal 0.583019 0.127097 0.802456
    outer loop
      vertex 7.81596 26.6013 38.3896
      vertex 7.81596 25.5 38.564
      vertex 8.82843 26.374 37.69
    endloop
  endfacet
  facet normal 0.583019 0.127096 0.802456
    outer loop
      vertex 8.82843 26.374 37.69
      vertex 7.81596 25.5 38.564
      vertex 8.82843 25.5 37.8284
    endloop
  endfacet
  facet normal 0.587785 0 0.809017
    outer loop
      vertex 7.81596 25.5 38.564
      vertex 7.81596 -25.5 38.564
      vertex 8.82843 -25.5 37.8284
    endloop
  endfacet
  facet normal 0.587785 0 0.809017
    outer loop
      vertex 8.82843 25.5 37.8284
      vertex 7.81596 25.5 38.564
      vertex 8.82843 -25.5 37.8284
    endloop
  endfacet
  facet normal 0.583019 -0.127097 0.802456
    outer loop
      vertex 8.82843 -25.5 37.8284
      vertex 7.81596 -25.5 38.564
      vertex 7.81596 -26.6013 38.3896
    endloop
  endfacet
  facet normal 0.583018 0.368848 0.723906
    outer loop
      vertex 7.81596 27.5949 37.8834
      vertex 7.81596 26.6013 38.3896
      vertex 8.82843 27.1625 37.2882
    endloop
  endfacet
  facet normal 0.583019 0.368848 0.723906
    outer loop
      vertex 8.82843 27.1625 37.2882
      vertex 7.81596 26.6013 38.3896
      vertex 8.82843 26.374 37.69
    endloop
  endfacet
  facet normal 0.30557 -0.432276 0.848389
    outer loop
      vertex 7.81596 -27.5949 37.8834
      vertex 7.81596 -26.6013 38.3896
      vertex 6.62574 -27.8222 38.1962
    endloop
  endfacet
  facet normal 0.30557 -0.673286 0.673286
    outer loop
      vertex 7.81596 -27.5949 37.8834
      vertex 6.62574 -27.8222 38.1962
      vertex 6.62574 -28.6962 37.3222
    endloop
  endfacet
  facet normal 0.30557 -0.673286 0.673286
    outer loop
      vertex 7.81596 -28.3834 37.0949
      vertex 7.81596 -27.5949 37.8834
      vertex 6.62574 -28.6962 37.3222
    endloop
  endfacet
  facet normal -1.57009e-16 -0.707107 0.707107
    outer loop
      vertex 6.62574 -27.8222 38.1962
      vertex -6.62574 -27.8222 38.1962
      vertex -6.62574 -28.6962 37.3222
    endloop
  endfacet
  facet normal -1.57009e-16 -0.707107 0.707107
    outer loop
      vertex 6.62574 -28.6962 37.3222
      vertex 6.62574 -27.8222 38.1962
      vertex -6.62574 -28.6962 37.3222
    endloop
  endfacet
  facet normal -0.30557 -0.673286 0.673286
    outer loop
      vertex -6.62574 -28.6962 37.3222
      vertex -6.62574 -27.8222 38.1962
      vertex -7.81596 -27.5949 37.8834
    endloop
  endfacet
  facet normal -0.30557 -0.673286 0.673286
    outer loop
      vertex -7.81596 -28.3834 37.0949
      vertex -6.62574 -28.6962 37.3222
      vertex -7.81596 -27.5949 37.8834
    endloop
  endfacet
  facet normal 0.583018 -0.127097 0.802456
    outer loop
      vertex 8.82843 -25.5 37.8284
      vertex 7.81596 -26.6013 38.3896
      vertex 8.82843 -26.374 37.69
    endloop
  endfacet
  facet normal 0.583019 -0.368848 0.723906
    outer loop
      vertex 8.82843 -26.374 37.69
      vertex 7.81596 -26.6013 38.3896
      vertex 7.81596 -27.5949 37.8834
    endloop
  endfacet
  facet normal -0.583018 -0.574495 0.574495
    outer loop
      vertex -7.81596 -27.5949 37.8834
      vertex -8.82843 -27.1625 37.2882
      vertex -7.81596 -28.3834 37.0949
    endloop
  endfacet
  facet normal -0.583018 -0.574495 0.574495
    outer loop
      vertex -7.81596 -28.3834 37.0949
      vertex -8.82843 -27.1625 37.2882
      vertex -8.82843 -27.7882 36.6625
    endloop
  endfacet
  facet normal -0.805534 -0.418996 0.418996
    outer loop
      vertex -8.82843 -27.1625 37.2882
      vertex -9.56403 -26.5674 36.4691
      vertex -8.82843 -27.7882 36.6625
    endloop
  endfacet
  facet normal -0.805534 -0.418996 0.418996
    outer loop
      vertex -8.82843 -27.7882 36.6625
      vertex -9.56403 -26.5674 36.4691
      vertex -9.56403 -26.9691 36.0674
    endloop
  endfacet
  facet normal -0.805534 -0.269012 0.527966
    outer loop
      vertex -8.82843 -27.1625 37.2882
      vertex -8.82843 -26.374 37.69
      vertex -9.56403 -26.5674 36.4691
    endloop
  endfacet
  facet normal -0.805534 -0.269011 0.527966
    outer loop
      vertex -9.56403 -26.5674 36.4691
      vertex -8.82843 -26.374 37.69
      vertex -9.56403 -26.0612 36.7271
    endloop
  endfacet
  facet normal -0.805534 -0.0926951 0.585254
    outer loop
      vertex -8.82843 -26.374 37.69
      vertex -8.82843 -25.5 37.8284
      vertex -9.56403 -26.0612 36.7271
    endloop
  endfacet
  facet normal -0.805534 -0.0926958 0.585255
    outer loop
      vertex -9.56403 -26.0612 36.7271
      vertex -8.82843 -25.5 37.8284
      vertex -9.56403 -25.5 36.816
    endloop
  endfacet
  facet normal -0.809017 0 0.587785
    outer loop
      vertex -8.82843 -25.5 37.8284
      vertex -8.82843 25.5 37.8284
      vertex -9.56403 -25.5 36.816
    endloop
  endfacet
  facet normal -0.809017 0 0.587785
    outer loop
      vertex -9.56403 -25.5 36.816
      vertex -8.82843 25.5 37.8284
      vertex -9.56403 25.5 36.816
    endloop
  endfacet
  facet normal -0.805534 0.0926952 0.585255
    outer loop
      vertex -9.56403 25.5 36.816
      vertex -8.82843 25.5 37.8284
      vertex -8.82843 26.374 37.69
    endloop
  endfacet
  facet normal -0.583018 0.127097 0.802456
    outer loop
      vertex -8.82843 25.5 37.8284
      vertex -7.81596 26.6013 38.3896
      vertex -8.82843 26.374 37.69
    endloop
  endfacet
  facet normal -0.583019 0.368848 0.723906
    outer loop
      vertex -8.82843 26.374 37.69
      vertex -7.81596 26.6013 38.3896
      vertex -7.81596 27.5949 37.8834
    endloop
  endfacet
  facet normal -0.30557 0.432276 0.848389
    outer loop
      vertex -7.81596 27.5949 37.8834
      vertex -7.81596 26.6013 38.3896
      vertex -6.62574 27.8222 38.1962
    endloop
  endfacet
  facet normal -0.30557 0.673286 0.673286
    outer loop
      vertex -6.62574 27.8222 38.1962
      vertex -6.62574 28.6962 37.3222
      vertex -7.81596 27.5949 37.8834
    endloop
  endfacet
  facet normal -0.30557 0.673286 0.673286
    outer loop
      vertex -7.81596 27.5949 37.8834
      vertex -6.62574 28.6962 37.3222
      vertex -7.81596 28.3834 37.0949
    endloop
  endfacet
  facet normal -1.57009e-16 0.707107 0.707107
    outer loop
      vertex -6.62574 27.8222 38.1962
      vertex 6.62574 27.8222 38.1962
      vertex -6.62574 28.6962 37.3222
    endloop
  endfacet
  facet normal -1.57009e-16 0.707107 0.707107
    outer loop
      vertex -6.62574 28.6962 37.3222
      vertex 6.62574 27.8222 38.1962
      vertex 6.62574 28.6962 37.3222
    endloop
  endfacet
  facet normal 0.30557 0.673286 0.673286
    outer loop
      vertex 6.62574 28.6962 37.3222
      vertex 6.62574 27.8222 38.1962
      vertex 7.81596 27.5949 37.8834
    endloop
  endfacet
  facet normal 0.30557 0.673286 0.673286
    outer loop
      vertex 7.81596 28.3834 37.0949
      vertex 6.62574 28.6962 37.3222
      vertex 7.81596 27.5949 37.8834
    endloop
  endfacet
  facet normal 0.583018 0.574495 0.574495
    outer loop
      vertex 7.81596 28.3834 37.0949
      vertex 7.81596 27.5949 37.8834
      vertex 8.82843 27.1625 37.2882
    endloop
  endfacet
  facet normal 0.583018 0.574495 0.574495
    outer loop
      vertex 8.82843 27.7882 36.6625
      vertex 7.81596 28.3834 37.0949
      vertex 8.82843 27.1625 37.2882
    endloop
  endfacet
  facet normal 0.805534 0.0926951 0.585254
    outer loop
      vertex 8.82843 26.374 37.69
      vertex 8.82843 25.5 37.8284
      vertex 9.56403 26.0612 36.7271
    endloop
  endfacet
  facet normal 0.805534 0.269012 0.527966
    outer loop
      vertex 8.82843 27.1625 37.2882
      vertex 8.82843 26.374 37.69
      vertex 9.56403 26.5674 36.4691
    endloop
  endfacet
  facet normal 0.805534 0.269011 0.527966
    outer loop
      vertex 9.56403 26.5674 36.4691
      vertex 8.82843 26.374 37.69
      vertex 9.56403 26.0612 36.7271
    endloop
  endfacet
  facet normal 0.809017 0 0.587785
    outer loop
      vertex 8.82843 25.5 37.8284
      vertex 8.82843 -25.5 37.8284
      vertex 9.56403 -25.5 36.816
    endloop
  endfacet
  facet normal 0.809017 0 0.587785
    outer loop
      vertex 9.56403 25.5 36.816
      vertex 8.82843 25.5 37.8284
      vertex 9.56403 -25.5 36.816
    endloop
  endfacet
  facet normal 0.805534 0.0926958 0.585255
    outer loop
      vertex 9.56403 26.0612 36.7271
      vertex 8.82843 25.5 37.8284
      vertex 9.56403 25.5 36.816
    endloop
  endfacet
  facet normal 0.805534 -0.0926952 0.585255
    outer loop
      vertex 9.56403 -25.5 36.816
      vertex 8.82843 -25.5 37.8284
      vertex 8.82843 -26.374 37.69
    endloop
  endfacet
  facet normal 0.805534 0.418996 0.418996
    outer loop
      vertex 8.82843 27.7882 36.6625
      vertex 8.82843 27.1625 37.2882
      vertex 9.56403 26.5674 36.4691
    endloop
  endfacet
  facet normal 0.805534 0.418996 0.418996
    outer loop
      vertex 9.56403 26.9691 36.0674
      vertex 8.82843 27.7882 36.6625
      vertex 9.56403 26.5674 36.4691
    endloop
  endfacet
  facet normal 0.583018 -0.368848 0.723906
    outer loop
      vertex 8.82843 -26.374 37.69
      vertex 7.81596 -27.5949 37.8834
      vertex 8.82843 -27.1625 37.2882
    endloop
  endfacet
  facet normal 0.583018 -0.574495 0.574495
    outer loop
      vertex 8.82843 -27.1625 37.2882
      vertex 7.81596 -27.5949 37.8834
      vertex 7.81596 -28.3834 37.0949
    endloop
  endfacet
  facet normal 0.583018 -0.574495 0.574495
    outer loop
      vertex 8.82843 -27.7882 36.6625
      vertex 8.82843 -27.1625 37.2882
      vertex 7.81596 -28.3834 37.0949
    endloop
  endfacet
  facet normal 0.583018 -0.723906 0.368848
    outer loop
      vertex 8.82843 -27.7882 36.6625
      vertex 7.81596 -28.3834 37.0949
      vertex 7.81596 -28.8896 36.1013
    endloop
  endfacet
  facet normal 0.30557 -0.848389 0.432276
    outer loop
      vertex 7.81596 -28.8896 36.1013
      vertex 7.81596 -28.3834 37.0949
      vertex 6.62574 -29.2574 36.2208
    endloop
  endfacet
  facet normal 0.30557 -0.848389 0.432276
    outer loop
      vertex 7.81596 -28.3834 37.0949
      vertex 6.62574 -28.6962 37.3222
      vertex 6.62574 -29.2574 36.2208
    endloop
  endfacet
  facet normal -1.00806e-16 -0.891007 0.45399
    outer loop
      vertex 6.62574 -28.6962 37.3222
      vertex -6.62574 -28.6962 37.3222
      vertex -6.62574 -29.2574 36.2208
    endloop
  endfacet
  facet normal -1.00806e-16 -0.891007 0.45399
    outer loop
      vertex 6.62574 -29.2574 36.2208
      vertex 6.62574 -28.6962 37.3222
      vertex -6.62574 -29.2574 36.2208
    endloop
  endfacet
  facet normal -0.30557 -0.848389 0.432276
    outer loop
      vertex -6.62574 -29.2574 36.2208
      vertex -6.62574 -28.6962 37.3222
      vertex -7.81596 -28.8896 36.1013
    endloop
  endfacet
  facet normal -0.30557 -0.848389 0.432276
    outer loop
      vertex -7.81596 -28.8896 36.1013
      vertex -6.62574 -28.6962 37.3222
      vertex -7.81596 -28.3834 37.0949
    endloop
  endfacet
  facet normal -0.583019 -0.723906 0.368848
    outer loop
      vertex -7.81596 -28.8896 36.1013
      vertex -7.81596 -28.3834 37.0949
      vertex -8.82843 -28.19 35.874
    endloop
  endfacet
  facet normal -0.583018 -0.723906 0.368848
    outer loop
      vertex -8.82843 -28.19 35.874
      vertex -7.81596 -28.3834 37.0949
      vertex -8.82843 -27.7882 36.6625
    endloop
  endfacet
  facet normal 0.805534 -0.0926957 0.585254
    outer loop
      vertex 9.56403 -25.5 36.816
      vertex 8.82843 -26.374 37.69
      vertex 9.56403 -26.0612 36.7271
    endloop
  endfacet
  facet normal 0.805534 -0.269012 0.527966
    outer loop
      vertex 9.56403 -26.0612 36.7271
      vertex 8.82843 -26.374 37.69
      vertex 8.82843 -27.1625 37.2882
    endloop
  endfacet
  facet normal -0.805534 -0.527966 0.269012
    outer loop
      vertex -8.82843 -28.19 35.874
      vertex -8.82843 -27.7882 36.6625
      vertex -9.56403 -27.2271 35.5612
    endloop
  endfacet
  facet normal -0.805534 -0.527966 0.269011
    outer loop
      vertex -9.56403 -27.2271 35.5612
      vertex -8.82843 -27.7882 36.6625
      vertex -9.56403 -26.9691 36.0674
    endloop
  endfacet
  facet normal -0.949919 -0.278435 0.141869
    outer loop
      vertex -9.56403 -27.2271 35.5612
      vertex -9.56403 -26.9691 36.0674
      vertex -9.95075 -26.0951 35.1934
    endloop
  endfacet
  facet normal -0.949919 -0.278435 0.14187
    outer loop
      vertex -9.95075 -26.0951 35.1934
      vertex -9.56403 -26.9691 36.0674
      vertex -9.95075 -26.0062 35.3678
    endloop
  endfacet
  facet normal -0.94992 -0.220967 0.220967
    outer loop
      vertex -9.56403 -26.5674 36.4691
      vertex -9.95075 -25.8678 35.5062
      vertex -9.56403 -26.9691 36.0674
    endloop
  endfacet
  facet normal -0.94992 -0.220967 0.220967
    outer loop
      vertex -9.56403 -26.9691 36.0674
      vertex -9.95075 -25.8678 35.5062
      vertex -9.95075 -26.0062 35.3678
    endloop
  endfacet
  facet normal -0.949919 -0.141869 0.278435
    outer loop
      vertex -9.56403 -26.5674 36.4691
      vertex -9.56403 -26.0612 36.7271
      vertex -9.95075 -25.8678 35.5062
    endloop
  endfacet
  facet normal -0.949919 -0.14187 0.278435
    outer loop
      vertex -9.95075 -25.8678 35.5062
      vertex -9.56403 -26.0612 36.7271
      vertex -9.95075 -25.6934 35.5951
    endloop
  endfacet
  facet normal -0.949919 -0.0488852 0.308647
    outer loop
      vertex -9.56403 -26.0612 36.7271
      vertex -9.56403 -25.5 36.816
      vertex -9.95075 -25.6934 35.5951
    endloop
  endfacet
  facet normal -0.949919 -0.0488852 0.308647
    outer loop
      vertex -9.95075 -25.6934 35.5951
      vertex -9.56403 -25.5 36.816
      vertex -9.95075 -25.5 35.6257
    endloop
  endfacet
  facet normal -0.951057 0 0.309017
    outer loop
      vertex -9.56403 -25.5 36.816
      vertex -9.56403 25.5 36.816
      vertex -9.95075 -25.5 35.6257
    endloop
  endfacet
  facet normal -0.951057 0 0.309017
    outer loop
      vertex -9.95075 -25.5 35.6257
      vertex -9.56403 25.5 36.816
      vertex -9.95075 25.5 35.6257
    endloop
  endfacet
  facet normal -0.949919 0.0488852 0.308647
    outer loop
      vertex -9.95075 25.5 35.6257
      vertex -9.56403 25.5 36.816
      vertex -9.56403 26.0612 36.7271
    endloop
  endfacet
  facet normal -0.805534 0.0926957 0.585254
    outer loop
      vertex -9.56403 25.5 36.816
      vertex -8.82843 26.374 37.69
      vertex -9.56403 26.0612 36.7271
    endloop
  endfacet
  facet normal -0.805534 0.269012 0.527966
    outer loop
      vertex -9.56403 26.0612 36.7271
      vertex -8.82843 26.374 37.69
      vertex -8.82843 27.1625 37.2882
    endloop
  endfacet
  facet normal -0.583018 0.368848 0.723906
    outer loop
      vertex -8.82843 26.374 37.69
      vertex -7.81596 27.5949 37.8834
      vertex -8.82843 27.1625 37.2882
    endloop
  endfacet
  facet normal -0.583018 0.574495 0.574495
    outer loop
      vertex -7.81596 27.5949 37.8834
      vertex -7.81596 28.3834 37.0949
      vertex -8.82843 27.1625 37.2882
    endloop
  endfacet
  facet normal -0.583018 0.574495 0.574495
    outer loop
      vertex -8.82843 27.1625 37.2882
      vertex -7.81596 28.3834 37.0949
      vertex -8.82843 27.7882 36.6625
    endloop
  endfacet
  facet normal -0.583018 0.723906 0.368848
    outer loop
      vertex -8.82843 27.7882 36.6625
      vertex -7.81596 28.3834 37.0949
      vertex -7.81596 28.8896 36.1013
    endloop
  endfacet
  facet normal -0.30557 0.848389 0.432276
    outer loop
      vertex -7.81596 28.8896 36.1013
      vertex -7.81596 28.3834 37.0949
      vertex -6.62574 29.2574 36.2208
    endloop
  endfacet
  facet normal -0.30557 0.848389 0.432276
    outer loop
      vertex -7.81596 28.3834 37.0949
      vertex -6.62574 28.6962 37.3222
      vertex -6.62574 29.2574 36.2208
    endloop
  endfacet
  facet normal -1.00806e-16 0.891007 0.45399
    outer loop
      vertex -6.62574 28.6962 37.3222
      vertex 6.62574 28.6962 37.3222
      vertex -6.62574 29.2574 36.2208
    endloop
  endfacet
  facet normal -1.00806e-16 0.891007 0.45399
    outer loop
      vertex -6.62574 29.2574 36.2208
      vertex 6.62574 28.6962 37.3222
      vertex 6.62574 29.2574 36.2208
    endloop
  endfacet
  facet normal 0.30557 0.848389 0.432276
    outer loop
      vertex 6.62574 29.2574 36.2208
      vertex 6.62574 28.6962 37.3222
      vertex 7.81596 28.8896 36.1013
    endloop
  endfacet
  facet normal 0.30557 0.848389 0.432276
    outer loop
      vertex 7.81596 28.8896 36.1013
      vertex 6.62574 28.6962 37.3222
      vertex 7.81596 28.3834 37.0949
    endloop
  endfacet
  facet normal 0.583019 0.723906 0.368848
    outer loop
      vertex 7.81596 28.8896 36.1013
      vertex 7.81596 28.3834 37.0949
      vertex 8.82843 28.19 35.874
    endloop
  endfacet
  facet normal 0.583018 0.723906 0.368848
    outer loop
      vertex 8.82843 28.19 35.874
      vertex 7.81596 28.3834 37.0949
      vertex 8.82843 27.7882 36.6625
    endloop
  endfacet
  facet normal 0.805534 0.527966 0.269012
    outer loop
      vertex 8.82843 28.19 35.874
      vertex 8.82843 27.7882 36.6625
      vertex 9.56403 27.2271 35.5612
    endloop
  endfacet
  facet normal 0.805534 0.527966 0.269011
    outer loop
      vertex 9.56403 27.2271 35.5612
      vertex 8.82843 27.7882 36.6625
      vertex 9.56403 26.9691 36.0674
    endloop
  endfacet
  facet normal 0.949919 0.0488852 0.308647
    outer loop
      vertex 9.56403 26.0612 36.7271
      vertex 9.56403 25.5 36.816
      vertex 9.95075 25.6934 35.5951
    endloop
  endfacet
  facet normal 0.949919 0.141869 0.278435
    outer loop
      vertex 9.56403 26.5674 36.4691
      vertex 9.56403 26.0612 36.7271
      vertex 9.95075 25.8678 35.5062
    endloop
  endfacet
  facet normal 0.949919 0.14187 0.278435
    outer loop
      vertex 9.95075 25.8678 35.5062
      vertex 9.56403 26.0612 36.7271
      vertex 9.95075 25.6934 35.5951
    endloop
  endfacet
  facet normal 0.94992 0.220967 0.220967
    outer loop
      vertex 9.56403 26.9691 36.0674
      vertex 9.56403 26.5674 36.4691
      vertex 9.95075 25.8678 35.5062
    endloop
  endfacet
  facet normal 0.94992 0.220967 0.220967
    outer loop
      vertex 9.95075 26.0062 35.3678
      vertex 9.56403 26.9691 36.0674
      vertex 9.95075 25.8678 35.5062
    endloop
  endfacet
  facet normal 0.949919 0.0488852 0.308647
    outer loop
      vertex 9.95075 25.6934 35.5951
      vertex 9.56403 25.5 36.816
      vertex 9.95075 25.5 35.6257
    endloop
  endfacet
  facet normal 0.951057 0 0.309017
    outer loop
      vertex 9.56403 25.5 36.816
      vertex 9.56403 -25.5 36.816
      vertex 9.95075 -25.5 35.6257
    endloop
  endfacet
  facet normal 0.951057 0 0.309017
    outer loop
      vertex 9.95075 25.5 35.6257
      vertex 9.56403 25.5 36.816
      vertex 9.95075 -25.5 35.6257
    endloop
  endfacet
  facet normal 0.949919 -0.0488852 0.308647
    outer loop
      vertex 9.95075 -25.5 35.6257
      vertex 9.56403 -25.5 36.816
      vertex 9.56403 -26.0612 36.7271
    endloop
  endfacet
  facet normal 0.949919 0.278435 0.141869
    outer loop
      vertex 9.56403 27.2271 35.5612
      vertex 9.56403 26.9691 36.0674
      vertex 9.95075 26.0951 35.1934
    endloop
  endfacet
  facet normal 0.949919 0.278435 0.14187
    outer loop
      vertex 9.95075 26.0951 35.1934
      vertex 9.56403 26.9691 36.0674
      vertex 9.95075 26.0062 35.3678
    endloop
  endfacet
  facet normal 0.805534 -0.269011 0.527966
    outer loop
      vertex 9.56403 -26.0612 36.7271
      vertex 8.82843 -27.1625 37.2882
      vertex 9.56403 -26.5674 36.4691
    endloop
  endfacet
  facet normal 0.805534 -0.418996 0.418996
    outer loop
      vertex 9.56403 -26.5674 36.4691
      vertex 8.82843 -27.1625 37.2882
      vertex 8.82843 -27.7882 36.6625
    endloop
  endfacet
  facet normal 0.805534 -0.418996 0.418996
    outer loop
      vertex 9.56403 -26.9691 36.0674
      vertex 9.56403 -26.5674 36.4691
      vertex 8.82843 -27.7882 36.6625
    endloop
  endfacet
  facet normal 0.805534 -0.527966 0.269012
    outer loop
      vertex 9.56403 -26.9691 36.0674
      vertex 8.82843 -27.7882 36.6625
      vertex 8.82843 -28.19 35.874
    endloop
  endfacet
  facet normal 0.583019 -0.723906 0.368848
    outer loop
      vertex 8.82843 -28.19 35.874
      vertex 8.82843 -27.7882 36.6625
      vertex 7.81596 -28.8896 36.1013
    endloop
  endfacet
  facet normal 0.583019 -0.802456 0.127097
    outer loop
      vertex 8.82843 -28.19 35.874
      vertex 7.81596 -28.8896 36.1013
      vertex 7.81596 -29.064 35
    endloop
  endfacet
  facet normal 0.30557 -0.940447 0.148952
    outer loop
      vertex 7.81596 -29.064 35
      vertex 7.81596 -28.8896 36.1013
      vertex 6.62574 -29.4508 35
    endloop
  endfacet
  facet normal 0.30557 -0.940447 0.148952
    outer loop
      vertex 7.81596 -28.8896 36.1013
      vertex 6.62574 -29.2574 36.2208
      vertex 6.62574 -29.4508 35
    endloop
  endfacet
  facet normal -3.47353e-17 -0.987688 0.156434
    outer loop
      vertex 6.62574 -29.2574 36.2208
      vertex -6.62574 -29.2574 36.2208
      vertex -6.62574 -29.4508 35
    endloop
  endfacet
  facet normal -3.47353e-17 -0.987688 0.156434
    outer loop
      vertex 6.62574 -29.4508 35
      vertex 6.62574 -29.2574 36.2208
      vertex -6.62574 -29.4508 35
    endloop
  endfacet
  facet normal -0.30557 -0.940447 0.148952
    outer loop
      vertex -6.62574 -29.4508 35
      vertex -6.62574 -29.2574 36.2208
      vertex -7.81596 -29.064 35
    endloop
  endfacet
  facet normal -0.30557 -0.940447 0.148952
    outer loop
      vertex -7.81596 -29.064 35
      vertex -6.62574 -29.2574 36.2208
      vertex -7.81596 -28.8896 36.1013
    endloop
  endfacet
  facet normal -0.583019 -0.802456 0.127097
    outer loop
      vertex -7.81596 -29.064 35
      vertex -7.81596 -28.8896 36.1013
      vertex -8.82843 -28.3284 35
    endloop
  endfacet
  facet normal -0.583018 -0.802456 0.127097
    outer loop
      vertex -8.82843 -28.3284 35
      vertex -7.81596 -28.8896 36.1013
      vertex -8.82843 -28.19 35.874
    endloop
  endfacet
  facet normal -0.805534 -0.585255 0.0926952
    outer loop
      vertex -8.82843 -28.3284 35
      vertex -8.82843 -28.19 35.874
      vertex -9.56403 -27.316 35
    endloop
  endfacet
  facet normal -0.805534 -0.585254 0.0926957
    outer loop
      vertex -9.56403 -27.316 35
      vertex -8.82843 -28.19 35.874
      vertex -9.56403 -27.2271 35.5612
    endloop
  endfacet
  facet normal 0.949919 -0.0488852 0.308647
    outer loop
      vertex 9.95075 -25.5 35.6257
      vertex 9.56403 -26.0612 36.7271
      vertex 9.95075 -25.6934 35.5951
    endloop
  endfacet
  facet normal 0.949919 -0.141869 0.278435
    outer loop
      vertex 9.95075 -25.6934 35.5951
      vertex 9.56403 -26.0612 36.7271
      vertex 9.56403 -26.5674 36.4691
    endloop
  endfacet
  facet normal -0.949919 -0.308647 0.0488852
    outer loop
      vertex -9.56403 -27.316 35
      vertex -9.56403 -27.2271 35.5612
      vertex -9.95075 -26.1257 35
    endloop
  endfacet
  facet normal -0.949919 -0.308647 0.0488852
    outer loop
      vertex -9.95075 -26.1257 35
      vertex -9.56403 -27.2271 35.5612
      vertex -9.95075 -26.0951 35.1934
    endloop
  endfacet
  facet normal -1 0 -2.22045e-16
    outer loop
      vertex -9.95075 -25.5 35.6257
      vertex -9.95075 25.5 35.6257
      vertex -9.95075 -25.6934 35.5951
    endloop
  endfacet
  facet normal -1 0 -2.22045e-16
    outer loop
      vertex -9.95075 -25.6934 35.5951
      vertex -9.95075 25.5 35.6257
      vertex -9.95075 25.6934 35.5951
    endloop
  endfacet
  facet normal -1 0 -2.22045e-16
    outer loop
      vertex -9.95075 -25.6934 35.5951
      vertex -9.95075 25.6934 35.5951
      vertex -9.95075 25.8678 35.5062
    endloop
  endfacet
  facet normal -1 0 -2.22045e-16
    outer loop
      vertex -9.95075 -25.6934 35.5951
      vertex -9.95075 25.8678 35.5062
      vertex -9.95075 26.0062 35.3678
    endloop
  endfacet
  facet normal -1 0 -2.22045e-16
    outer loop
      vertex -9.95075 -25.6934 35.5951
      vertex -9.95075 26.0062 35.3678
      vertex -9.95075 26.0951 35.1934
    endloop
  endfacet
  facet normal -1 0 -2.22045e-16
    outer loop
      vertex -9.95075 -25.6934 35.5951
      vertex -9.95075 26.0951 35.1934
      vertex -9.95075 26.1257 35
    endloop
  endfacet
  facet normal -1 0 -2.22045e-16
    outer loop
      vertex -9.95075 2.0015 14.7339
      vertex -9.95075 26.1257 35
      vertex -9.95075 35.1257 -35
    endloop
  endfacet
  facet normal -1 0 -2.22045e-16
    outer loop
      vertex -9.95075 -0.940889 -11.7927
      vertex -9.95075 35.1257 -35
      vertex -9.95075 -35.1257 -35
    endloop
  endfacet
  facet normal -1 0 -2.22045e-16
    outer loop
      vertex -9.95075 -25.6934 35.5951
      vertex -9.95075 -35.1257 -35
      vertex -9.95075 -26.1257 35
    endloop
  endfacet
  facet normal -1 0 -2.22045e-16
    outer loop
      vertex -9.95075 -25.6934 35.5951
      vertex -9.95075 -26.1257 35
      vertex -9.95075 -26.0951 35.1934
    endloop
  endfacet
  facet normal -1 0 -2.22045e-16
    outer loop
      vertex -9.95075 -25.6934 35.5951
      vertex -9.95075 -26.0951 35.1934
      vertex -9.95075 -26.0062 35.3678
    endloop
  endfacet
  facet normal -1 0 -2.22045e-16
    outer loop
      vertex -9.95075 -25.6934 35.5951
      vertex -9.95075 -26.0062 35.3678
      vertex -9.95075 -25.8678 35.5062
    endloop
  endfacet
  facet normal -1 0 -2.22045e-16
    outer loop
      vertex -9.95075 -25.6934 35.5951
      vertex -9.95075 26.1257 35
      vertex -9.95075 0.484524 16.9658
    endloop
  endfacet
  facet normal -1 0 -2.22045e-16
    outer loop
      vertex -9.95075 -25.6934 35.5951
      vertex -9.95075 0.484524 16.9658
      vertex -9.95075 -0.484524 16.9658
    endloop
  endfacet
  facet normal -1 0 -2.22045e-16
    outer loop
      vertex -9.95075 -25.6934 35.5951
      vertex -9.95075 -0.484524 16.9658
      vertex -9.95075 -1.3217 16.5264
    endloop
  endfacet
  facet normal -1 0 -2.22045e-16
    outer loop
      vertex -9.95075 -25.6934 35.5951
      vertex -9.95075 -1.3217 16.5264
      vertex -9.95075 -1.34257 16.5155
    endloop
  endfacet
  facet normal -1 0 -2.22045e-16
    outer loop
      vertex -9.95075 -25.6934 35.5951
      vertex -9.95075 -1.34257 16.5155
      vertex -9.95075 -1.87967 15.7373
    endloop
  endfacet
  facet normal -1 0 -2.22045e-16
    outer loop
      vertex -9.95075 -25.6934 35.5951
      vertex -9.95075 -1.87967 15.7373
      vertex -9.95075 -1.89306 15.7179
    endloop
  endfacet
  facet normal -1 0 -2.22045e-16
    outer loop
      vertex -9.95075 -25.6934 35.5951
      vertex -9.95075 -1.89306 15.7179
      vertex -9.95075 -2.00702 14.7794
    endloop
  endfacet
  facet normal -1 0 -2.22045e-16
    outer loop
      vertex -9.95075 -25.6934 35.5951
      vertex -9.95075 -2.00702 14.7794
      vertex -9.95075 -2.00986 14.756
    endloop
  endfacet
  facet normal -1 0 -2.22045e-16
    outer loop
      vertex -9.95075 -25.6934 35.5951
      vertex -9.95075 -2.00986 14.756
      vertex -9.95075 -1.67459 13.8719
    endloop
  endfacet
  facet normal -1 0 -2.22045e-16
    outer loop
      vertex -9.95075 -25.6934 35.5951
      vertex -9.95075 -1.67459 13.8719
      vertex -9.95075 -1.66623 13.8499
    endloop
  endfacet
  facet normal -1 0 -2.22045e-16
    outer loop
      vertex -9.95075 -25.6934 35.5951
      vertex -9.95075 -1.66623 13.8499
      vertex -9.95075 35.1257 -35
    endloop
  endfacet
  facet normal -1 0 -2.22045e-16
    outer loop
      vertex -9.95075 -0.0228862 12.981
      vertex -9.95075 35.1257 -35
      vertex -9.95075 -0.940889 13.2073
    endloop
  endfacet
  facet normal -1 0 -2.22045e-16
    outer loop
      vertex -9.95075 -0.958532 13.2229
      vertex -9.95075 -0.940889 13.2073
      vertex -9.95075 35.1257 -35
    endloop
  endfacet
  facet normal -1 0 -2.22045e-16
    outer loop
      vertex -9.95075 0.918003 13.2016
      vertex -9.95075 35.1257 -35
      vertex -9.95075 0 12.9754
    endloop
  endfacet
  facet normal -1 0 -2.22045e-16
    outer loop
      vertex -9.95075 -0.0228862 12.981
      vertex -9.95075 0 12.9754
      vertex -9.95075 35.1257 -35
    endloop
  endfacet
  facet normal -1 0 -2.22045e-16
    outer loop
      vertex -9.95075 1.64859 13.8343
      vertex -9.95075 35.1257 -35
      vertex -9.95075 0.940889 13.2073
    endloop
  endfacet
  facet normal -1 0 -2.22045e-16
    outer loop
      vertex -9.95075 0.918003 13.2016
      vertex -9.95075 0.940889 13.2073
      vertex -9.95075 35.1257 -35
    endloop
  endfacet
  facet normal -1 0 -2.22045e-16
    outer loop
      vertex -9.95075 1.66623 13.8499
      vertex -9.95075 35.1257 -35
      vertex -9.95075 1.64859 13.8343
    endloop
  endfacet
  facet normal -1 0 -2.22045e-16
    outer loop
      vertex -9.95075 2.0015 14.7339
      vertex -9.95075 35.1257 -35
      vertex -9.95075 1.66623 13.8499
    endloop
  endfacet
  facet normal -1 0 -2.22045e-16
    outer loop
      vertex -9.95075 2.00986 14.756
      vertex -9.95075 26.1257 35
      vertex -9.95075 2.0015 14.7339
    endloop
  endfacet
  facet normal -1 0 -2.22045e-16
    outer loop
      vertex -9.95075 -1.87967 -9.26266
      vertex -9.95075 -35.1257 -35
      vertex -9.95075 -1.34257 -8.48455
    endloop
  endfacet
  facet normal -1 0 -2.22045e-16
    outer loop
      vertex -9.95075 1.8959 15.6945
      vertex -9.95075 26.1257 35
      vertex -9.95075 2.00986 14.756
    endloop
  endfacet
  facet normal -1 0 -2.22045e-16
    outer loop
      vertex -9.95075 1.89306 15.7179
      vertex -9.95075 26.1257 35
      vertex -9.95075 1.8959 15.6945
    endloop
  endfacet
  facet normal -1 0 -2.22045e-16
    outer loop
      vertex -9.95075 1.35596 16.4961
      vertex -9.95075 26.1257 35
      vertex -9.95075 1.89306 15.7179
    endloop
  endfacet
  facet normal -1 0 -2.22045e-16
    outer loop
      vertex -9.95075 1.34257 16.5155
      vertex -9.95075 26.1257 35
      vertex -9.95075 1.35596 16.4961
    endloop
  endfacet
  facet normal -1 0 -2.22045e-16
    outer loop
      vertex -9.95075 0.505395 16.9548
      vertex -9.95075 26.1257 35
      vertex -9.95075 1.34257 16.5155
    endloop
  endfacet
  facet normal -1 0 -2.22045e-16
    outer loop
      vertex -9.95075 0.484524 16.9658
      vertex -9.95075 26.1257 35
      vertex -9.95075 0.505395 16.9548
    endloop
  endfacet
  facet normal -1 0 -2.22045e-16
    outer loop
      vertex -9.95075 -25.6934 35.5951
      vertex -9.95075 0.484524 -8.03421
      vertex -9.95075 -0.484524 -8.03421
    endloop
  endfacet
  facet normal -1 0 -2.22045e-16
    outer loop
      vertex -9.95075 -25.6934 35.5951
      vertex -9.95075 -0.484524 -8.03421
      vertex -9.95075 -1.3217 -8.47359
    endloop
  endfacet
  facet normal -1 0 -2.22045e-16
    outer loop
      vertex -9.95075 -25.6934 35.5951
      vertex -9.95075 -1.3217 -8.47359
      vertex -9.95075 -1.34257 -8.48455
    endloop
  endfacet
  facet normal -1 0 -2.22045e-16
    outer loop
      vertex -9.95075 -25.6934 35.5951
      vertex -9.95075 -1.34257 -8.48455
      vertex -9.95075 -35.1257 -35
    endloop
  endfacet
  facet normal -1 0 -2.22045e-16
    outer loop
      vertex -9.95075 -2.00702 -10.2206
      vertex -9.95075 -35.1257 -35
      vertex -9.95075 -1.89306 -9.28206
    endloop
  endfacet
  facet normal -1 0 -2.22045e-16
    outer loop
      vertex -9.95075 -1.87967 -9.26266
      vertex -9.95075 -1.89306 -9.28206
      vertex -9.95075 -35.1257 -35
    endloop
  endfacet
  facet normal -1 0 -2.22045e-16
    outer loop
      vertex -9.95075 1.35596 -8.50395
      vertex -9.95075 35.1257 -35
      vertex -9.95075 1.89306 -9.28206
    endloop
  endfacet
  facet normal -1 0 -2.22045e-16
    outer loop
      vertex -9.95075 -0.0228862 -12.019
      vertex -9.95075 35.1257 -35
      vertex -9.95075 -0.940889 -11.7927
    endloop
  endfacet
  facet normal -1 0 -2.22045e-16
    outer loop
      vertex -9.95075 -2.00702 -10.2206
      vertex -9.95075 -2.00986 -10.244
      vertex -9.95075 -35.1257 -35
    endloop
  endfacet
  facet normal -1 0 -2.22045e-16
    outer loop
      vertex -9.95075 0.918003 -11.7984
      vertex -9.95075 35.1257 -35
      vertex -9.95075 0 -12.0246
    endloop
  endfacet
  facet normal -1 0 -2.22045e-16
    outer loop
      vertex -9.95075 -2.00986 -10.244
      vertex -9.95075 -1.67459 -11.1281
      vertex -9.95075 -35.1257 -35
    endloop
  endfacet
  facet normal -1 0 -2.22045e-16
    outer loop
      vertex -9.95075 -1.67459 -11.1281
      vertex -9.95075 -1.66623 -11.1501
      vertex -9.95075 -35.1257 -35
    endloop
  endfacet
  facet normal -1 0 -2.22045e-16
    outer loop
      vertex -9.95075 -1.66623 -11.1501
      vertex -9.95075 -0.958532 -11.7771
      vertex -9.95075 -35.1257 -35
    endloop
  endfacet
  facet normal -1 0 -2.22045e-16
    outer loop
      vertex -9.95075 -0.958532 -11.7771
      vertex -9.95075 -0.940889 -11.7927
      vertex -9.95075 -35.1257 -35
    endloop
  endfacet
  facet normal -1 0 -2.22045e-16
    outer loop
      vertex -9.95075 0 -12.0246
      vertex -9.95075 35.1257 -35
      vertex -9.95075 -0.0228862 -12.019
    endloop
  endfacet
  facet normal -1 0 -2.22045e-16
    outer loop
      vertex -9.95075 0.940889 -11.7927
      vertex -9.95075 35.1257 -35
      vertex -9.95075 0.918003 -11.7984
    endloop
  endfacet
  facet normal -1 0 -2.22045e-16
    outer loop
      vertex -9.95075 1.64859 -11.1657
      vertex -9.95075 35.1257 -35
      vertex -9.95075 0.940889 -11.7927
    endloop
  endfacet
  facet normal -1 0 -2.22045e-16
    outer loop
      vertex -9.95075 1.66623 -11.1501
      vertex -9.95075 35.1257 -35
      vertex -9.95075 1.64859 -11.1657
    endloop
  endfacet
  facet normal -1 0 -2.22045e-16
    outer loop
      vertex -9.95075 2.0015 -10.2661
      vertex -9.95075 35.1257 -35
      vertex -9.95075 1.66623 -11.1501
    endloop
  endfacet
  facet normal -1 0 -2.22045e-16
    outer loop
      vertex -9.95075 2.00986 -10.244
      vertex -9.95075 35.1257 -35
      vertex -9.95075 2.0015 -10.2661
    endloop
  endfacet
  facet normal -1 0 -2.22045e-16
    outer loop
      vertex -9.95075 1.8959 -9.30546
      vertex -9.95075 35.1257 -35
      vertex -9.95075 2.00986 -10.244
    endloop
  endfacet
  facet normal -1 0 -2.22045e-16
    outer loop
      vertex -9.95075 1.89306 -9.28206
      vertex -9.95075 35.1257 -35
      vertex -9.95075 1.8959 -9.30546
    endloop
  endfacet
  facet normal -1 0 -2.22045e-16
    outer loop
      vertex -9.95075 -25.6934 35.5951
      vertex -9.95075 35.1257 -35
      vertex -9.95075 1.35596 -8.50395
    endloop
  endfacet
  facet normal -1 0 -2.22045e-16
    outer loop
      vertex -9.95075 -25.6934 35.5951
      vertex -9.95075 1.35596 -8.50395
      vertex -9.95075 1.34257 -8.48455
    endloop
  endfacet
  facet normal -1 0 -2.22045e-16
    outer loop
      vertex -9.95075 -25.6934 35.5951
      vertex -9.95075 1.34257 -8.48455
      vertex -9.95075 0.505395 -8.04516
    endloop
  endfacet
  facet normal -1 0 -2.22045e-16
    outer loop
      vertex -9.95075 -25.6934 35.5951
      vertex -9.95075 0.505395 -8.04516
      vertex -9.95075 0.484524 -8.03421
    endloop
  endfacet
  facet normal -1 0 -2.22045e-16
    outer loop
      vertex -9.95075 -0.958532 13.2229
      vertex -9.95075 35.1257 -35
      vertex -9.95075 -1.66623 13.8499
    endloop
  endfacet
  facet normal -0.949919 0.0488852 0.308647
    outer loop
      vertex -9.95075 25.5 35.6257
      vertex -9.56403 26.0612 36.7271
      vertex -9.95075 25.6934 35.5951
    endloop
  endfacet
  facet normal -0.949919 0.141869 0.278435
    outer loop
      vertex -9.95075 25.6934 35.5951
      vertex -9.56403 26.0612 36.7271
      vertex -9.56403 26.5674 36.4691
    endloop
  endfacet
  facet normal -0.805534 0.269011 0.527966
    outer loop
      vertex -9.56403 26.0612 36.7271
      vertex -8.82843 27.1625 37.2882
      vertex -9.56403 26.5674 36.4691
    endloop
  endfacet
  facet normal -0.805534 0.418996 0.418996
    outer loop
      vertex -8.82843 27.1625 37.2882
      vertex -8.82843 27.7882 36.6625
      vertex -9.56403 26.5674 36.4691
    endloop
  endfacet
  facet normal -0.805534 0.418996 0.418996
    outer loop
      vertex -9.56403 26.5674 36.4691
      vertex -8.82843 27.7882 36.6625
      vertex -9.56403 26.9691 36.0674
    endloop
  endfacet
  facet normal -0.805534 0.527966 0.269012
    outer loop
      vertex -9.56403 26.9691 36.0674
      vertex -8.82843 27.7882 36.6625
      vertex -8.82843 28.19 35.874
    endloop
  endfacet
  facet normal -0.583019 0.723906 0.368848
    outer loop
      vertex -8.82843 28.19 35.874
      vertex -8.82843 27.7882 36.6625
      vertex -7.81596 28.8896 36.1013
    endloop
  endfacet
  facet normal -0.583019 0.802456 0.127097
    outer loop
      vertex -8.82843 28.19 35.874
      vertex -7.81596 28.8896 36.1013
      vertex -7.81596 29.064 35
    endloop
  endfacet
  facet normal -0.30557 0.940447 0.148952
    outer loop
      vertex -7.81596 29.064 35
      vertex -7.81596 28.8896 36.1013
      vertex -6.62574 29.4508 35
    endloop
  endfacet
  facet normal -0.30557 0.940447 0.148952
    outer loop
      vertex -7.81596 28.8896 36.1013
      vertex -6.62574 29.2574 36.2208
      vertex -6.62574 29.4508 35
    endloop
  endfacet
  facet normal -3.47353e-17 0.987688 0.156434
    outer loop
      vertex -6.62574 29.2574 36.2208
      vertex 6.62574 29.2574 36.2208
      vertex -6.62574 29.4508 35
    endloop
  endfacet
  facet normal -3.47353e-17 0.987688 0.156434
    outer loop
      vertex -6.62574 29.4508 35
      vertex 6.62574 29.2574 36.2208
      vertex 6.62574 29.4508 35
    endloop
  endfacet
  facet normal 0.30557 0.940447 0.148952
    outer loop
      vertex 6.62574 29.4508 35
      vertex 6.62574 29.2574 36.2208
      vertex 7.81596 29.064 35
    endloop
  endfacet
  facet normal 0.30557 0.940447 0.148952
    outer loop
      vertex 7.81596 29.064 35
      vertex 6.62574 29.2574 36.2208
      vertex 7.81596 28.8896 36.1013
    endloop
  endfacet
  facet normal 0.583019 0.802456 0.127097
    outer loop
      vertex 7.81596 29.064 35
      vertex 7.81596 28.8896 36.1013
      vertex 8.82843 28.3284 35
    endloop
  endfacet
  facet normal 0.583018 0.802456 0.127097
    outer loop
      vertex 8.82843 28.3284 35
      vertex 7.81596 28.8896 36.1013
      vertex 8.82843 28.19 35.874
    endloop
  endfacet
  facet normal 0.805534 0.585255 0.0926952
    outer loop
      vertex 8.82843 28.3284 35
      vertex 8.82843 28.19 35.874
      vertex 9.56403 27.316 35
    endloop
  endfacet
  facet normal 0.805534 0.585254 0.0926957
    outer loop
      vertex 9.56403 27.316 35
      vertex 8.82843 28.19 35.874
      vertex 9.56403 27.2271 35.5612
    endloop
  endfacet
  facet normal 0.949919 0.308647 0.0488852
    outer loop
      vertex 9.56403 27.316 35
      vertex 9.56403 27.2271 35.5612
      vertex 9.95075 26.1257 35
    endloop
  endfacet
  facet normal 0.949919 0.308647 0.0488852
    outer loop
      vertex 9.95075 26.1257 35
      vertex 9.56403 27.2271 35.5612
      vertex 9.95075 26.0951 35.1934
    endloop
  endfacet
  facet normal 1 0 2.22045e-16
    outer loop
      vertex 9.95075 25.5 35.6257
      vertex 9.95075 -25.5 35.6257
      vertex 9.95075 -25.6934 35.5951
    endloop
  endfacet
  facet normal 1 0 2.22045e-16
    outer loop
      vertex 9.95075 -26.0062 35.3678
      vertex 9.95075 25.5 35.6257
      vertex 9.95075 -25.8678 35.5062
    endloop
  endfacet
  facet normal 1 0 2.22045e-16
    outer loop
      vertex 9.95075 -25.8678 35.5062
      vertex 9.95075 25.5 35.6257
      vertex 9.95075 -25.6934 35.5951
    endloop
  endfacet
  facet normal 1 0 2.22045e-16
    outer loop
      vertex 9.95075 -26.0951 35.1934
      vertex 9.95075 25.5 35.6257
      vertex 9.95075 -26.0062 35.3678
    endloop
  endfacet
  facet normal 1 0 2.22045e-16
    outer loop
      vertex 9.95075 -26.1257 35
      vertex 9.95075 25.5 35.6257
      vertex 9.95075 -26.0951 35.1934
    endloop
  endfacet
  facet normal 1 0 2.22045e-16
    outer loop
      vertex 9.95075 -17.5 35
      vertex 9.95075 25.5 35.6257
      vertex 9.95075 -26.1257 35
    endloop
  endfacet
  facet normal 1 0 2.22045e-16
    outer loop
      vertex 9.95075 -35.1257 -35
      vertex 9.95075 -17.5 35
      vertex 9.95075 -26.1257 35
    endloop
  endfacet
  facet normal 1 0 2.22045e-16
    outer loop
      vertex 9.95075 17.5 35
      vertex 9.95075 25.5 35.6257
      vertex 9.95075 -17.5 35
    endloop
  endfacet
  facet normal 1 0 2.22045e-16
    outer loop
      vertex 9.95075 17.5 35
      vertex 9.95075 26.5 -35
      vertex 9.95075 25.5 35.6257
    endloop
  endfacet
  facet normal 1 0 2.22045e-16
    outer loop
      vertex 9.95075 35.1257 -35
      vertex 9.95075 25.5 35.6257
      vertex 9.95075 26.5 -35
    endloop
  endfacet
  facet normal 1 0 2.22045e-16
    outer loop
      vertex 9.95075 26.1257 35
      vertex 9.95075 25.5 35.6257
      vertex 9.95075 35.1257 -35
    endloop
  endfacet
  facet normal 1 0 2.22045e-16
    outer loop
      vertex 9.95075 26.0951 35.1934
      vertex 9.95075 25.5 35.6257
      vertex 9.95075 26.1257 35
    endloop
  endfacet
  facet normal 1 0 2.22045e-16
    outer loop
      vertex 9.95075 26.0062 35.3678
      vertex 9.95075 25.5 35.6257
      vertex 9.95075 26.0951 35.1934
    endloop
  endfacet
  facet normal 1 0 2.22045e-16
    outer loop
      vertex 9.95075 25.8678 35.5062
      vertex 9.95075 25.5 35.6257
      vertex 9.95075 26.0062 35.3678
    endloop
  endfacet
  facet normal 1 0 2.22045e-16
    outer loop
      vertex 9.95075 25.6934 35.5951
      vertex 9.95075 25.5 35.6257
      vertex 9.95075 25.8678 35.5062
    endloop
  endfacet
  facet normal 1 0 2.22045e-16
    outer loop
      vertex 9.95075 -26.5 -35
      vertex 9.95075 -17.5 35
      vertex 9.95075 -35.1257 -35
    endloop
  endfacet
  facet normal 0.949919 -0.14187 0.278435
    outer loop
      vertex 9.95075 -25.6934 35.5951
      vertex 9.56403 -26.5674 36.4691
      vertex 9.95075 -25.8678 35.5062
    endloop
  endfacet
  facet normal 0.94992 -0.220967 0.220967
    outer loop
      vertex 9.95075 -25.8678 35.5062
      vertex 9.56403 -26.5674 36.4691
      vertex 9.56403 -26.9691 36.0674
    endloop
  endfacet
  facet normal 0.94992 -0.220967 0.220967
    outer loop
      vertex 9.95075 -26.0062 35.3678
      vertex 9.95075 -25.8678 35.5062
      vertex 9.56403 -26.9691 36.0674
    endloop
  endfacet
  facet normal 0.949919 -0.278435 0.141869
    outer loop
      vertex 9.95075 -26.0062 35.3678
      vertex 9.56403 -26.9691 36.0674
      vertex 9.56403 -27.2271 35.5612
    endloop
  endfacet
  facet normal 0.805534 -0.527966 0.269011
    outer loop
      vertex 9.56403 -27.2271 35.5612
      vertex 9.56403 -26.9691 36.0674
      vertex 8.82843 -28.19 35.874
    endloop
  endfacet
  facet normal 0.805534 -0.585254 0.0926951
    outer loop
      vertex 9.56403 -27.2271 35.5612
      vertex 8.82843 -28.19 35.874
      vertex 8.82843 -28.3284 35
    endloop
  endfacet
  facet normal 0.583019 -0.802456 0.127096
    outer loop
      vertex 8.82843 -28.3284 35
      vertex 8.82843 -28.19 35.874
      vertex 7.81596 -29.064 35
    endloop
  endfacet
  facet normal 0.584631 -0.804676 0.103458
    outer loop
      vertex 8.82843 -28.3284 35
      vertex 7.81596 -29.064 35
      vertex 7.81596 -38.064 -35
    endloop
  endfacet
  facet normal 0.584631 -0.804676 0.103458
    outer loop
      vertex 8.82843 -37.3284 -35
      vertex 8.82843 -28.3284 35
      vertex 7.81596 -38.064 -35
    endloop
  endfacet
  facet normal 0.306732 -0.944025 0.121375
    outer loop
      vertex 7.81596 -29.064 35
      vertex 6.62574 -29.4508 35
      vertex 6.62574 -38.4508 -35
    endloop
  endfacet
  facet normal 0.306732 -0.944025 0.121375
    outer loop
      vertex 7.81596 -38.064 -35
      vertex 7.81596 -29.064 35
      vertex 6.62574 -38.4508 -35
    endloop
  endfacet
  facet normal -2.83155e-17 -0.991836 0.127522
    outer loop
      vertex 6.62574 -29.4508 35
      vertex -6.62574 -29.4508 35
      vertex -6.62574 -38.4508 -35
    endloop
  endfacet
  facet normal -2.83155e-17 -0.991836 0.127522
    outer loop
      vertex 6.62574 -38.4508 -35
      vertex 6.62574 -29.4508 35
      vertex -6.62574 -38.4508 -35
    endloop
  endfacet
  facet normal -0.306732 -0.944025 0.121375
    outer loop
      vertex -6.62574 -38.4508 -35
      vertex -6.62574 -29.4508 35
      vertex -7.81596 -29.064 35
    endloop
  endfacet
  facet normal -0.306732 -0.944025 0.121375
    outer loop
      vertex -7.81596 -38.064 -35
      vertex -6.62574 -38.4508 -35
      vertex -7.81596 -29.064 35
    endloop
  endfacet
  facet normal -0.584631 -0.804676 0.103458
    outer loop
      vertex -7.81596 -38.064 -35
      vertex -7.81596 -29.064 35
      vertex -8.82843 -28.3284 35
    endloop
  endfacet
  facet normal -0.584631 -0.804676 0.103458
    outer loop
      vertex -8.82843 -37.3284 -35
      vertex -7.81596 -38.064 -35
      vertex -8.82843 -28.3284 35
    endloop
  endfacet
  facet normal -0.806717 -0.586114 0.0753575
    outer loop
      vertex -8.82843 -28.3284 35
      vertex -9.56403 -27.316 35
      vertex -8.82843 -37.3284 -35
    endloop
  endfacet
  facet normal -0.806717 -0.586114 0.0753575
    outer loop
      vertex -8.82843 -37.3284 -35
      vertex -9.56403 -27.316 35
      vertex -9.56403 -36.316 -35
    endloop
  endfacet
  facet normal -0.950307 -0.308773 0.0396994
    outer loop
      vertex -9.56403 -27.316 35
      vertex -9.95075 -26.1257 35
      vertex -9.56403 -36.316 -35
    endloop
  endfacet
  facet normal -0.950307 -0.308773 0.0396994
    outer loop
      vertex -9.56403 -36.316 -35
      vertex -9.95075 -26.1257 35
      vertex -9.95075 -35.1257 -35
    endloop
  endfacet
  facet normal 2.22045e-16 0 -1
    outer loop
      vertex -8.82843 -37.3284 -35
      vertex -9.56403 -36.316 -35
      vertex -7.81596 -38.064 -35
    endloop
  endfacet
  facet normal 2.22045e-16 0 -1
    outer loop
      vertex -7.81596 -38.064 -35
      vertex -9.56403 -36.316 -35
      vertex -9.95075 -35.1257 -35
    endloop
  endfacet
  facet normal 2.22045e-16 0 -1
    outer loop
      vertex -7.81596 -38.064 -35
      vertex -9.95075 -35.1257 -35
      vertex -9.95075 35.1257 -35
    endloop
  endfacet
  facet normal 2.22045e-16 0 -1
    outer loop
      vertex -7.81596 -38.064 -35
      vertex -9.95075 35.1257 -35
      vertex -9.56403 36.316 -35
    endloop
  endfacet
  facet normal 2.22045e-16 0 -1
    outer loop
      vertex -7.81596 -38.064 -35
      vertex -9.56403 36.316 -35
      vertex -8.82843 37.3284 -35
    endloop
  endfacet
  facet normal 2.22045e-16 0 -1
    outer loop
      vertex -7.81596 -38.064 -35
      vertex -8.82843 37.3284 -35
      vertex -7.81596 38.064 -35
    endloop
  endfacet
  facet normal 2.22045e-16 0 -1
    outer loop
      vertex -7.81596 -38.064 -35
      vertex -7.81596 38.064 -35
      vertex -6.62574 38.4508 -35
    endloop
  endfacet
  facet normal 2.22045e-16 0 -1
    outer loop
      vertex -6 34.5 -35
      vertex -6.62574 38.4508 -35
      vertex 6.62574 38.4508 -35
    endloop
  endfacet
  facet normal 2.22045e-16 0 -1
    outer loop
      vertex 6 34.5 -35
      vertex 6.62574 38.4508 -35
      vertex 7.81596 38.064 -35
    endloop
  endfacet
  facet normal 2.22045e-16 0 -1
    outer loop
      vertex 6 26.5 -35
      vertex 7.81596 38.064 -35
      vertex 8.82843 37.3284 -35
    endloop
  endfacet
  facet normal 2.22045e-16 0 -1
    outer loop
      vertex 6 34.5 -35
      vertex 7.81596 38.064 -35
      vertex 6 26.5 -35
    endloop
  endfacet
  facet normal 2.22045e-16 0 -1
    outer loop
      vertex -6 34.5 -35
      vertex 6.62574 38.4508 -35
      vertex 6 34.5 -35
    endloop
  endfacet
  facet normal 2.22045e-16 0 -1
    outer loop
      vertex -7.81596 -38.064 -35
      vertex -6.62574 38.4508 -35
      vertex -6 34.5 -35
    endloop
  endfacet
  facet normal 2.22045e-16 0 -1
    outer loop
      vertex -6 -34.5 -35
      vertex -7.81596 -38.064 -35
      vertex -6 34.5 -35
    endloop
  endfacet
  facet normal 2.22045e-16 0 -1
    outer loop
      vertex 9.95075 -26.5 -35
      vertex 6 -34.5 -35
      vertex 6 -26.5 -35
    endloop
  endfacet
  facet normal 2.22045e-16 0 -1
    outer loop
      vertex -7.81596 -38.064 -35
      vertex -6 -34.5 -35
      vertex 6 -34.5 -35
    endloop
  endfacet
  facet normal 2.22045e-16 0 -1
    outer loop
      vertex 6 -34.5 -35
      vertex 9.95075 -26.5 -35
      vertex 9.95075 -35.1257 -35
    endloop
  endfacet
  facet normal 2.22045e-16 0 -1
    outer loop
      vertex 6 -34.5 -35
      vertex 9.95075 -35.1257 -35
      vertex -7.81596 -38.064 -35
    endloop
  endfacet
  facet normal 2.22045e-16 0 -1
    outer loop
      vertex -7.81596 -38.064 -35
      vertex 9.95075 -35.1257 -35
      vertex 9.56403 -36.316 -35
    endloop
  endfacet
  facet normal 2.22045e-16 0 -1
    outer loop
      vertex -7.81596 -38.064 -35
      vertex 9.56403 -36.316 -35
      vertex 8.82843 -37.3284 -35
    endloop
  endfacet
  facet normal 2.22045e-16 0 -1
    outer loop
      vertex -7.81596 -38.064 -35
      vertex 8.82843 -37.3284 -35
      vertex 7.81596 -38.064 -35
    endloop
  endfacet
  facet normal 2.22045e-16 0 -1
    outer loop
      vertex -7.81596 -38.064 -35
      vertex 7.81596 -38.064 -35
      vertex 6.62574 -38.4508 -35
    endloop
  endfacet
  facet normal 2.22045e-16 0 -1
    outer loop
      vertex -7.81596 -38.064 -35
      vertex 6.62574 -38.4508 -35
      vertex -6.62574 -38.4508 -35
    endloop
  endfacet
  facet normal 2.22045e-16 0 -1
    outer loop
      vertex 6 26.5 -35
      vertex 8.82843 37.3284 -35
      vertex 9.56403 36.316 -35
    endloop
  endfacet
  facet normal 2.22045e-16 0 -1
    outer loop
      vertex 6 26.5 -35
      vertex 9.56403 36.316 -35
      vertex 9.95075 35.1257 -35
    endloop
  endfacet
  facet normal 2.22045e-16 0 -1
    outer loop
      vertex 6 26.5 -35
      vertex 9.95075 35.1257 -35
      vertex 9.95075 26.5 -35
    endloop
  endfacet
  facet normal -0.950307 0.308773 0.0396994
    outer loop
      vertex -9.95075 26.1257 35
      vertex -9.56403 27.316 35
      vertex -9.95075 35.1257 -35
    endloop
  endfacet
  facet normal -0.950307 0.308773 0.0396994
    outer loop
      vertex -9.95075 35.1257 -35
      vertex -9.56403 27.316 35
      vertex -9.56403 36.316 -35
    endloop
  endfacet
  facet normal -0.949919 0.308647 0.0488852
    outer loop
      vertex -9.95075 26.1257 35
      vertex -9.95075 26.0951 35.1934
      vertex -9.56403 27.316 35
    endloop
  endfacet
  facet normal -0.949919 0.308647 0.0488852
    outer loop
      vertex -9.95075 26.0951 35.1934
      vertex -9.56403 27.2271 35.5612
      vertex -9.56403 27.316 35
    endloop
  endfacet
  facet normal -0.949919 0.278435 0.14187
    outer loop
      vertex -9.95075 26.0062 35.3678
      vertex -9.56403 27.2271 35.5612
      vertex -9.95075 26.0951 35.1934
    endloop
  endfacet
  facet normal -0.949919 0.278435 0.141869
    outer loop
      vertex -9.95075 26.0062 35.3678
      vertex -9.56403 26.9691 36.0674
      vertex -9.56403 27.2271 35.5612
    endloop
  endfacet
  facet normal -0.94992 0.220967 0.220967
    outer loop
      vertex -9.56403 26.5674 36.4691
      vertex -9.56403 26.9691 36.0674
      vertex -9.95075 25.8678 35.5062
    endloop
  endfacet
  facet normal -0.94992 0.220967 0.220967
    outer loop
      vertex -9.95075 25.8678 35.5062
      vertex -9.56403 26.9691 36.0674
      vertex -9.95075 26.0062 35.3678
    endloop
  endfacet
  facet normal -0.949919 0.14187 0.278435
    outer loop
      vertex -9.95075 25.6934 35.5951
      vertex -9.56403 26.5674 36.4691
      vertex -9.95075 25.8678 35.5062
    endloop
  endfacet
  facet normal 0.436727 0 -0.899594
    outer loop
      vertex -9.95075 0.484524 16.9658
      vertex -6 0.957263 18.8838
      vertex -9.95075 -0.484524 16.9658
    endloop
  endfacet
  facet normal 0.436727 0 -0.899594
    outer loop
      vertex -9.95075 -0.484524 16.9658
      vertex -6 0.957263 18.8838
      vertex -6 -0.957263 18.8838
    endloop
  endfacet
  facet normal 0.436727 -0.418062 -0.796551
    outer loop
      vertex -9.95075 0.505395 16.9548
      vertex -6 2.65249 17.994
      vertex -9.95075 0.484524 16.9658
    endloop
  endfacet
  facet normal 0.436727 -0.418062 -0.796551
    outer loop
      vertex -9.95075 0.484524 16.9658
      vertex -6 2.65249 17.994
      vertex -6 0.957263 18.8838
    endloop
  endfacet
  facet normal 0.436727 -0.418063 -0.796551
    outer loop
      vertex -9.95075 0.505395 16.9548
      vertex -9.95075 1.34257 16.5155
      vertex -6 2.65249 17.994
    endloop
  endfacet
  facet normal 0.436727 -0.740351 -0.511028
    outer loop
      vertex -9.95075 1.34257 16.5155
      vertex -9.95075 1.35596 16.4961
      vertex -6 3.74006 16.4184
    endloop
  endfacet
  facet normal 0.436727 -0.740351 -0.511028
    outer loop
      vertex -6 2.65249 17.994
      vertex -9.95075 1.34257 16.5155
      vertex -6 3.74006 16.4184
    endloop
  endfacet
  facet normal 0.436727 -0.740351 -0.511028
    outer loop
      vertex -9.95075 1.89306 15.7179
      vertex -6 3.74006 16.4184
      vertex -9.95075 1.35596 16.4961
    endloop
  endfacet
  facet normal 0.436727 -0.893035 -0.108434
    outer loop
      vertex -9.95075 1.89306 15.7179
      vertex -9.95075 1.8959 15.6945
      vertex -6 3.97083 14.5179
    endloop
  endfacet
  facet normal 0.436727 -0.893035 -0.108434
    outer loop
      vertex -6 3.74006 16.4184
      vertex -9.95075 1.89306 15.7179
      vertex -6 3.97083 14.5179
    endloop
  endfacet
  facet normal 0.436727 -0.893035 -0.108435
    outer loop
      vertex -9.95075 2.00986 14.756
      vertex -6 3.97083 14.5179
      vertex -9.95075 1.8959 15.6945
    endloop
  endfacet
  facet normal 0.436727 -0.841135 0.319001
    outer loop
      vertex -9.95075 2.0015 14.7339
      vertex -6 3.29194 12.7277
      vertex -6 3.97083 14.5179
    endloop
  endfacet
  facet normal 0.436727 -0.841135 0.319001
    outer loop
      vertex -9.95075 2.00986 14.756
      vertex -9.95075 2.0015 14.7339
      vertex -6 3.97083 14.5179
    endloop
  endfacet
  facet normal 0.436727 -0.841135 0.319001
    outer loop
      vertex -9.95075 1.66623 13.8499
      vertex -6 3.29194 12.7277
      vertex -9.95075 2.0015 14.7339
    endloop
  endfacet
  facet normal 0.436727 -0.596541 0.673356
    outer loop
      vertex -9.95075 1.64859 13.8343
      vertex -6 1.85889 11.4582
      vertex -6 3.29194 12.7277
    endloop
  endfacet
  facet normal 0.436727 -0.596541 0.673356
    outer loop
      vertex -9.95075 1.66623 13.8499
      vertex -9.95075 1.64859 13.8343
      vertex -6 3.29194 12.7277
    endloop
  endfacet
  facet normal 0.436727 -0.596541 0.673356
    outer loop
      vertex -9.95075 0.940889 13.2073
      vertex -6 1.85889 11.4582
      vertex -9.95075 1.64859 13.8343
    endloop
  endfacet
  facet normal 0.436727 -0.215287 0.873454
    outer loop
      vertex -9.95075 0.918003 13.2016
      vertex -6 0 11
      vertex -6 1.85889 11.4582
    endloop
  endfacet
  facet normal 0.436727 -0.215287 0.873454
    outer loop
      vertex -9.95075 0.940889 13.2073
      vertex -9.95075 0.918003 13.2016
      vertex -6 1.85889 11.4582
    endloop
  endfacet
  facet normal 0.436727 -0.215287 0.873454
    outer loop
      vertex -9.95075 0 12.9754
      vertex -6 0 11
      vertex -9.95075 0.918003 13.2016
    endloop
  endfacet
  facet normal 0.436727 0.215287 0.873454
    outer loop
      vertex -6 -1.85889 11.4582
      vertex -6 0 11
      vertex -9.95075 0 12.9754
    endloop
  endfacet
  facet normal 0.436727 0.215287 0.873454
    outer loop
      vertex -9.95075 -0.0228862 12.981
      vertex -6 -1.85889 11.4582
      vertex -9.95075 0 12.9754
    endloop
  endfacet
  facet normal 0.436727 0.215287 0.873454
    outer loop
      vertex -6 -1.85889 11.4582
      vertex -9.95075 -0.0228862 12.981
      vertex -9.95075 -0.940889 13.2073
    endloop
  endfacet
  facet normal 0.436727 0.596541 0.673356
    outer loop
      vertex -6 -3.29194 12.7277
      vertex -6 -1.85889 11.4582
      vertex -9.95075 -0.940889 13.2073
    endloop
  endfacet
  facet normal 0.436727 0.596541 0.673356
    outer loop
      vertex -9.95075 -0.958532 13.2229
      vertex -6 -3.29194 12.7277
      vertex -9.95075 -0.940889 13.2073
    endloop
  endfacet
  facet normal 0.436727 0.596541 0.673356
    outer loop
      vertex -6 -3.29194 12.7277
      vertex -9.95075 -0.958532 13.2229
      vertex -9.95075 -1.66623 13.8499
    endloop
  endfacet
  facet normal 0.436727 0.841135 0.319001
    outer loop
      vertex -9.95075 -1.66623 13.8499
      vertex -9.95075 -1.67459 13.8719
      vertex -6 -3.29194 12.7277
    endloop
  endfacet
  facet normal 0.436727 0.841135 0.319001
    outer loop
      vertex -6 -3.29194 12.7277
      vertex -9.95075 -1.67459 13.8719
      vertex -6 -3.97083 14.5179
    endloop
  endfacet
  facet normal 0.436727 0.841135 0.319001
    outer loop
      vertex -6 -3.97083 14.5179
      vertex -9.95075 -1.67459 13.8719
      vertex -9.95075 -2.00986 14.756
    endloop
  endfacet
  facet normal 0.436727 0.893035 -0.108434
    outer loop
      vertex -9.95075 -2.00986 14.756
      vertex -9.95075 -2.00702 14.7794
      vertex -6 -3.97083 14.5179
    endloop
  endfacet
  facet normal 0.436727 0.893035 -0.108434
    outer loop
      vertex -6 -3.97083 14.5179
      vertex -9.95075 -2.00702 14.7794
      vertex -6 -3.74006 16.4184
    endloop
  endfacet
  facet normal 0.436727 0.893035 -0.108435
    outer loop
      vertex -9.95075 -2.00702 14.7794
      vertex -9.95075 -1.89306 15.7179
      vertex -6 -3.74006 16.4184
    endloop
  endfacet
  facet normal 0.436727 0.740351 -0.511028
    outer loop
      vertex -9.95075 -1.89306 15.7179
      vertex -9.95075 -1.87967 15.7373
      vertex -6 -3.74006 16.4184
    endloop
  endfacet
  facet normal 0.436727 0.740351 -0.511028
    outer loop
      vertex -6 -3.74006 16.4184
      vertex -9.95075 -1.87967 15.7373
      vertex -6 -2.65249 17.994
    endloop
  endfacet
  facet normal 0.436727 0.740351 -0.511028
    outer loop
      vertex -9.95075 -1.87967 15.7373
      vertex -9.95075 -1.34257 16.5155
      vertex -6 -2.65249 17.994
    endloop
  endfacet
  facet normal 0.436727 0.418062 -0.796551
    outer loop
      vertex -9.95075 -1.34257 16.5155
      vertex -9.95075 -1.3217 16.5264
      vertex -6 -2.65249 17.994
    endloop
  endfacet
  facet normal 0.436727 0.418062 -0.796551
    outer loop
      vertex -6 -2.65249 17.994
      vertex -9.95075 -1.3217 16.5264
      vertex -6 -0.957263 18.8838
    endloop
  endfacet
  facet normal 0.436727 0.418063 -0.796551
    outer loop
      vertex -9.95075 -1.3217 16.5264
      vertex -9.95075 -0.484524 16.9658
      vertex -6 -0.957263 18.8838
    endloop
  endfacet
  facet normal 0.436727 -0.418062 -0.796551
    outer loop
      vertex -9.95075 0.505395 -8.04516
      vertex -6 2.65249 -7.00596
      vertex -9.95075 0.484524 -8.03421
    endloop
  endfacet
  facet normal 0.436727 -0.418062 -0.796551
    outer loop
      vertex -9.95075 0.484524 -8.03421
      vertex -6 2.65249 -7.00596
      vertex -6 0.957263 -6.11623
    endloop
  endfacet
  facet normal 0.436727 0 -0.899594
    outer loop
      vertex -9.95075 0.484524 -8.03421
      vertex -6 0.957263 -6.11623
      vertex -9.95075 -0.484524 -8.03421
    endloop
  endfacet
  facet normal 0.436727 0 -0.899594
    outer loop
      vertex -9.95075 -0.484524 -8.03421
      vertex -6 0.957263 -6.11623
      vertex -6 -0.957263 -6.11623
    endloop
  endfacet
  facet normal 0.436727 -0.418063 -0.796551
    outer loop
      vertex -9.95075 0.505395 -8.04516
      vertex -9.95075 1.34257 -8.48455
      vertex -6 2.65249 -7.00596
    endloop
  endfacet
  facet normal 0.436727 -0.740351 -0.511028
    outer loop
      vertex -9.95075 1.34257 -8.48455
      vertex -9.95075 1.35596 -8.50395
      vertex -6 3.74006 -8.58158
    endloop
  endfacet
  facet normal 0.436727 -0.740351 -0.511028
    outer loop
      vertex -6 2.65249 -7.00596
      vertex -9.95075 1.34257 -8.48455
      vertex -6 3.74006 -8.58158
    endloop
  endfacet
  facet normal 0.436727 -0.740351 -0.511028
    outer loop
      vertex -9.95075 1.89306 -9.28206
      vertex -6 3.74006 -8.58158
      vertex -9.95075 1.35596 -8.50395
    endloop
  endfacet
  facet normal 0.436727 -0.893035 -0.108434
    outer loop
      vertex -9.95075 1.89306 -9.28206
      vertex -9.95075 1.8959 -9.30546
      vertex -6 3.97083 -10.4821
    endloop
  endfacet
  facet normal 0.436727 -0.893035 -0.108434
    outer loop
      vertex -6 3.74006 -8.58158
      vertex -9.95075 1.89306 -9.28206
      vertex -6 3.97083 -10.4821
    endloop
  endfacet
  facet normal 0.436727 -0.893035 -0.108435
    outer loop
      vertex -9.95075 2.00986 -10.244
      vertex -6 3.97083 -10.4821
      vertex -9.95075 1.8959 -9.30546
    endloop
  endfacet
  facet normal 0.436727 -0.841135 0.319001
    outer loop
      vertex -9.95075 2.0015 -10.2661
      vertex -6 3.29194 -12.2723
      vertex -6 3.97083 -10.4821
    endloop
  endfacet
  facet normal 0.436727 -0.841135 0.319001
    outer loop
      vertex -9.95075 2.00986 -10.244
      vertex -9.95075 2.0015 -10.2661
      vertex -6 3.97083 -10.4821
    endloop
  endfacet
  facet normal 0.436727 -0.841135 0.319001
    outer loop
      vertex -9.95075 1.66623 -11.1501
      vertex -6 3.29194 -12.2723
      vertex -9.95075 2.0015 -10.2661
    endloop
  endfacet
  facet normal 0.436727 -0.596541 0.673356
    outer loop
      vertex -9.95075 1.64859 -11.1657
      vertex -6 1.85889 -13.5418
      vertex -6 3.29194 -12.2723
    endloop
  endfacet
  facet normal 0.436727 -0.596541 0.673356
    outer loop
      vertex -9.95075 1.66623 -11.1501
      vertex -9.95075 1.64859 -11.1657
      vertex -6 3.29194 -12.2723
    endloop
  endfacet
  facet normal 0.436727 -0.596541 0.673356
    outer loop
      vertex -9.95075 0.940889 -11.7927
      vertex -6 1.85889 -13.5418
      vertex -9.95075 1.64859 -11.1657
    endloop
  endfacet
  facet normal 0.436727 -0.215287 0.873454
    outer loop
      vertex -9.95075 0.918003 -11.7984
      vertex -6 0 -14
      vertex -6 1.85889 -13.5418
    endloop
  endfacet
  facet normal 0.436727 -0.215287 0.873454
    outer loop
      vertex -9.95075 0.940889 -11.7927
      vertex -9.95075 0.918003 -11.7984
      vertex -6 1.85889 -13.5418
    endloop
  endfacet
  facet normal 0.436727 -0.215287 0.873454
    outer loop
      vertex -9.95075 0 -12.0246
      vertex -6 0 -14
      vertex -9.95075 0.918003 -11.7984
    endloop
  endfacet
  facet normal 0.436727 0.215287 0.873454
    outer loop
      vertex -6 -1.85889 -13.5418
      vertex -6 0 -14
      vertex -9.95075 0 -12.0246
    endloop
  endfacet
  facet normal 0.436727 0.215287 0.873454
    outer loop
      vertex -9.95075 -0.0228862 -12.019
      vertex -6 -1.85889 -13.5418
      vertex -9.95075 0 -12.0246
    endloop
  endfacet
  facet normal 0.436727 0.215287 0.873454
    outer loop
      vertex -6 -1.85889 -13.5418
      vertex -9.95075 -0.0228862 -12.019
      vertex -9.95075 -0.940889 -11.7927
    endloop
  endfacet
  facet normal 0.436727 0.596541 0.673356
    outer loop
      vertex -6 -3.29194 -12.2723
      vertex -6 -1.85889 -13.5418
      vertex -9.95075 -0.940889 -11.7927
    endloop
  endfacet
  facet normal 0.436727 0.596541 0.673356
    outer loop
      vertex -9.95075 -0.958532 -11.7771
      vertex -6 -3.29194 -12.2723
      vertex -9.95075 -0.940889 -11.7927
    endloop
  endfacet
  facet normal 0.436727 0.596541 0.673356
    outer loop
      vertex -6 -3.29194 -12.2723
      vertex -9.95075 -0.958532 -11.7771
      vertex -9.95075 -1.66623 -11.1501
    endloop
  endfacet
  facet normal 0.436727 0.841135 0.319001
    outer loop
      vertex -9.95075 -1.66623 -11.1501
      vertex -9.95075 -1.67459 -11.1281
      vertex -6 -3.29194 -12.2723
    endloop
  endfacet
  facet normal 0.436727 0.841135 0.319001
    outer loop
      vertex -6 -3.29194 -12.2723
      vertex -9.95075 -1.67459 -11.1281
      vertex -6 -3.97083 -10.4821
    endloop
  endfacet
  facet normal 0.436727 0.841135 0.319001
    outer loop
      vertex -6 -3.97083 -10.4821
      vertex -9.95075 -1.67459 -11.1281
      vertex -9.95075 -2.00986 -10.244
    endloop
  endfacet
  facet normal 0.436727 0.893035 -0.108434
    outer loop
      vertex -9.95075 -2.00986 -10.244
      vertex -9.95075 -2.00702 -10.2206
      vertex -6 -3.97083 -10.4821
    endloop
  endfacet
  facet normal 0.436727 0.893035 -0.108434
    outer loop
      vertex -6 -3.97083 -10.4821
      vertex -9.95075 -2.00702 -10.2206
      vertex -6 -3.74006 -8.58158
    endloop
  endfacet
  facet normal 0.436727 0.893035 -0.108435
    outer loop
      vertex -9.95075 -2.00702 -10.2206
      vertex -9.95075 -1.89306 -9.28206
      vertex -6 -3.74006 -8.58158
    endloop
  endfacet
  facet normal 0.436727 0.740351 -0.511028
    outer loop
      vertex -9.95075 -1.89306 -9.28206
      vertex -9.95075 -1.87967 -9.26266
      vertex -6 -3.74006 -8.58158
    endloop
  endfacet
  facet normal 0.436727 0.740351 -0.511028
    outer loop
      vertex -6 -3.74006 -8.58158
      vertex -9.95075 -1.87967 -9.26266
      vertex -6 -2.65249 -7.00596
    endloop
  endfacet
  facet normal 0.436727 0.740351 -0.511028
    outer loop
      vertex -9.95075 -1.87967 -9.26266
      vertex -9.95075 -1.34257 -8.48455
      vertex -6 -2.65249 -7.00596
    endloop
  endfacet
  facet normal 0.436727 0.418062 -0.796551
    outer loop
      vertex -9.95075 -1.34257 -8.48455
      vertex -9.95075 -1.3217 -8.47359
      vertex -6 -2.65249 -7.00596
    endloop
  endfacet
  facet normal 0.436727 0.418062 -0.796551
    outer loop
      vertex -6 -2.65249 -7.00596
      vertex -9.95075 -1.3217 -8.47359
      vertex -6 -0.957263 -6.11623
    endloop
  endfacet
  facet normal 0.436727 0.418063 -0.796551
    outer loop
      vertex -9.95075 -1.3217 -8.47359
      vertex -9.95075 -0.484524 -8.03421
      vertex -6 -0.957263 -6.11623
    endloop
  endfacet
  facet normal -0.805534 0.527966 0.269011
    outer loop
      vertex -9.56403 27.2271 35.5612
      vertex -9.56403 26.9691 36.0674
      vertex -8.82843 28.19 35.874
    endloop
  endfacet
  facet normal -0.805534 0.585254 0.0926951
    outer loop
      vertex -9.56403 27.2271 35.5612
      vertex -8.82843 28.19 35.874
      vertex -8.82843 28.3284 35
    endloop
  endfacet
  facet normal -0.583019 0.802456 0.127096
    outer loop
      vertex -8.82843 28.3284 35
      vertex -8.82843 28.19 35.874
      vertex -7.81596 29.064 35
    endloop
  endfacet
  facet normal -0.584631 0.804676 0.103458
    outer loop
      vertex -8.82843 28.3284 35
      vertex -7.81596 29.064 35
      vertex -8.82843 37.3284 -35
    endloop
  endfacet
  facet normal -0.584631 0.804676 0.103458
    outer loop
      vertex -8.82843 37.3284 -35
      vertex -7.81596 29.064 35
      vertex -7.81596 38.064 -35
    endloop
  endfacet
  facet normal -0.306732 0.944025 0.121375
    outer loop
      vertex -7.81596 29.064 35
      vertex -6.62574 29.4508 35
      vertex -7.81596 38.064 -35
    endloop
  endfacet
  facet normal -0.306732 0.944025 0.121375
    outer loop
      vertex -7.81596 38.064 -35
      vertex -6.62574 29.4508 35
      vertex -6.62574 38.4508 -35
    endloop
  endfacet
  facet normal -2.83155e-17 0.991836 0.127522
    outer loop
      vertex -6.62574 29.4508 35
      vertex 6.62574 29.4508 35
      vertex -6.62574 38.4508 -35
    endloop
  endfacet
  facet normal -2.83155e-17 0.991836 0.127522
    outer loop
      vertex -6.62574 38.4508 -35
      vertex 6.62574 29.4508 35
      vertex 6.62574 38.4508 -35
    endloop
  endfacet
  facet normal 0.306732 0.944025 0.121375
    outer loop
      vertex 7.81596 29.064 35
      vertex 7.81596 38.064 -35
      vertex 6.62574 29.4508 35
    endloop
  endfacet
  facet normal 0.306732 0.944025 0.121375
    outer loop
      vertex 6.62574 29.4508 35
      vertex 7.81596 38.064 -35
      vertex 6.62574 38.4508 -35
    endloop
  endfacet
  facet normal 0.584631 0.804676 0.103458
    outer loop
      vertex 8.82843 28.3284 35
      vertex 8.82843 37.3284 -35
      vertex 7.81596 29.064 35
    endloop
  endfacet
  facet normal 0.584631 0.804676 0.103458
    outer loop
      vertex 7.81596 29.064 35
      vertex 8.82843 37.3284 -35
      vertex 7.81596 38.064 -35
    endloop
  endfacet
  facet normal 0.806717 0.586114 0.0753575
    outer loop
      vertex 8.82843 28.3284 35
      vertex 9.56403 27.316 35
      vertex 9.56403 36.316 -35
    endloop
  endfacet
  facet normal 0.806717 0.586114 0.0753575
    outer loop
      vertex 8.82843 37.3284 -35
      vertex 8.82843 28.3284 35
      vertex 9.56403 36.316 -35
    endloop
  endfacet
  facet normal 0.950307 0.308773 0.0396994
    outer loop
      vertex 9.56403 27.316 35
      vertex 9.95075 26.1257 35
      vertex 9.95075 35.1257 -35
    endloop
  endfacet
  facet normal 0.950307 0.308773 0.0396994
    outer loop
      vertex 9.56403 36.316 -35
      vertex 9.56403 27.316 35
      vertex 9.95075 35.1257 -35
    endloop
  endfacet
  facet normal 2.83155e-17 -0.991836 -0.127522
    outer loop
      vertex 6 26.5 -35
      vertex 9.95075 26.5 -35
      vertex 9.95075 17.5 35
    endloop
  endfacet
  facet normal 2.83155e-17 -0.991836 -0.127522
    outer loop
      vertex 6 17.5 35
      vertex 6 26.5 -35
      vertex 9.95075 17.5 35
    endloop
  endfacet
  facet normal 2.22045e-16 0 -1
    outer loop
      vertex 6 25.5 35
      vertex 6 17.5 35
      vertex -6 25.5 35
    endloop
  endfacet
  facet normal 2.22045e-16 0 -1
    outer loop
      vertex 9.95075 -17.5 35
      vertex 6 17.5 35
      vertex 9.95075 17.5 35
    endloop
  endfacet
  facet normal 2.22045e-16 0 -1
    outer loop
      vertex -6 25.5 35
      vertex 6 17.5 35
      vertex 9.95075 -17.5 35
    endloop
  endfacet
  facet normal 2.22045e-16 0 -1
    outer loop
      vertex -6 25.5 35
      vertex 9.95075 -17.5 35
      vertex 6 -17.5 35
    endloop
  endfacet
  facet normal 2.22045e-16 0 -1
    outer loop
      vertex -6 25.5 35
      vertex 6 -17.5 35
      vertex 6 -25.5 35
    endloop
  endfacet
  facet normal 2.22045e-16 0 -1
    outer loop
      vertex -6 25.5 35
      vertex 6 -25.5 35
      vertex -6 -25.5 35
    endloop
  endfacet
  facet normal 2.83155e-17 0.991836 -0.127522
    outer loop
      vertex 9.95075 -26.5 -35
      vertex 6 -26.5 -35
      vertex 9.95075 -17.5 35
    endloop
  endfacet
  facet normal 2.83155e-17 0.991836 -0.127522
    outer loop
      vertex 9.95075 -17.5 35
      vertex 6 -26.5 -35
      vertex 6 -17.5 35
    endloop
  endfacet
  facet normal 0.950307 -0.308773 0.0396994
    outer loop
      vertex 9.95075 -26.1257 35
      vertex 9.56403 -27.316 35
      vertex 9.56403 -36.316 -35
    endloop
  endfacet
  facet normal 0.950307 -0.308773 0.0396994
    outer loop
      vertex 9.95075 -35.1257 -35
      vertex 9.95075 -26.1257 35
      vertex 9.56403 -36.316 -35
    endloop
  endfacet
  facet normal 0.949919 -0.308647 0.0488852
    outer loop
      vertex 9.95075 -26.1257 35
      vertex 9.95075 -26.0951 35.1934
      vertex 9.56403 -27.316 35
    endloop
  endfacet
  facet normal 0.949919 -0.278435 0.14187
    outer loop
      vertex 9.95075 -26.0062 35.3678
      vertex 9.56403 -27.2271 35.5612
      vertex 9.95075 -26.0951 35.1934
    endloop
  endfacet
  facet normal 0.949919 -0.308647 0.0488852
    outer loop
      vertex 9.95075 -26.0951 35.1934
      vertex 9.56403 -27.2271 35.5612
      vertex 9.56403 -27.316 35
    endloop
  endfacet
  facet normal 0.805534 -0.585255 0.0926958
    outer loop
      vertex 9.56403 -27.316 35
      vertex 9.56403 -27.2271 35.5612
      vertex 8.82843 -28.3284 35
    endloop
  endfacet
  facet normal 0.806717 -0.586114 0.0753575
    outer loop
      vertex 9.56403 -27.316 35
      vertex 8.82843 -28.3284 35
      vertex 8.82843 -37.3284 -35
    endloop
  endfacet
  facet normal 0.806717 -0.586114 0.0753575
    outer loop
      vertex 9.56403 -36.316 -35
      vertex 9.56403 -27.316 35
      vertex 8.82843 -37.3284 -35
    endloop
  endfacet
  facet normal -1 0 -2.22045e-16
    outer loop
      vertex 6 -26.5 -35
      vertex 6 -34.5 -35
      vertex 6 -17.5 35
    endloop
  endfacet
  facet normal -1 0 -2.22045e-16
    outer loop
      vertex 6 -17.5 35
      vertex 6 -34.5 -35
      vertex 6 -25.5 35
    endloop
  endfacet
  facet normal 2.83155e-17 0.991836 -0.127522
    outer loop
      vertex 6 -34.5 -35
      vertex -6 -34.5 -35
      vertex 6 -25.5 35
    endloop
  endfacet
  facet normal 2.83155e-17 0.991836 -0.127522
    outer loop
      vertex 6 -25.5 35
      vertex -6 -34.5 -35
      vertex -6 -25.5 35
    endloop
  endfacet
  facet normal 1 0 2.22045e-16
    outer loop
      vertex -6 -3.97083 14.5179
      vertex -6 -25.5 35
      vertex -6 -34.5 -35
    endloop
  endfacet
  facet normal 1 0 2.22045e-16
    outer loop
      vertex -6 -2.65249 -7.00596
      vertex -6 25.5 35
      vertex -6 -34.5 -35
    endloop
  endfacet
  facet normal 1 0 2.22045e-16
    outer loop
      vertex -6 2.65249 -7.00596
      vertex -6 3.74006 -8.58158
      vertex -6 34.5 -35
    endloop
  endfacet
  facet normal 1 0 2.22045e-16
    outer loop
      vertex -6 25.5 35
      vertex -6 -25.5 35
      vertex -6 -0.957263 18.8838
    endloop
  endfacet
  facet normal 1 0 2.22045e-16
    outer loop
      vertex -6 -3.29194 12.7277
      vertex -6 -3.97083 14.5179
      vertex -6 -34.5 -35
    endloop
  endfacet
  facet normal 1 0 2.22045e-16
    outer loop
      vertex -6 25.5 35
      vertex -6 -0.957263 18.8838
      vertex -6 0.957263 18.8838
    endloop
  endfacet
  facet normal 1 0 2.22045e-16
    outer loop
      vertex -6 25.5 35
      vertex -6 0.957263 18.8838
      vertex -6 2.65249 17.994
    endloop
  endfacet
  facet normal 1 0 2.22045e-16
    outer loop
      vertex -6 25.5 35
      vertex -6 2.65249 17.994
      vertex -6 3.74006 16.4184
    endloop
  endfacet
  facet normal 1 0 2.22045e-16
    outer loop
      vertex -6 0 11
      vertex -6 -1.85889 11.4582
      vertex -6 -34.5 -35
    endloop
  endfacet
  facet normal 1 0 2.22045e-16
    outer loop
      vertex -6 25.5 35
      vertex -6 3.74006 16.4184
      vertex -6 3.97083 14.5179
    endloop
  endfacet
  facet normal 1 0 2.22045e-16
    outer loop
      vertex -6 25.5 35
      vertex -6 3.29194 12.7277
      vertex -6 -34.5 -35
    endloop
  endfacet
  facet normal 1 0 2.22045e-16
    outer loop
      vertex -6 25.5 35
      vertex -6 3.97083 14.5179
      vertex -6 3.29194 12.7277
    endloop
  endfacet
  facet normal 1 0 2.22045e-16
    outer loop
      vertex -6 3.29194 12.7277
      vertex -6 1.85889 11.4582
      vertex -6 -34.5 -35
    endloop
  endfacet
  facet normal 1 0 2.22045e-16
    outer loop
      vertex -6 -3.74006 16.4184
      vertex -6 -25.5 35
      vertex -6 -3.97083 14.5179
    endloop
  endfacet
  facet normal 1 0 2.22045e-16
    outer loop
      vertex -6 -2.65249 17.994
      vertex -6 -25.5 35
      vertex -6 -3.74006 16.4184
    endloop
  endfacet
  facet normal 1 0 2.22045e-16
    outer loop
      vertex -6 -0.957263 18.8838
      vertex -6 -25.5 35
      vertex -6 -2.65249 17.994
    endloop
  endfacet
  facet normal 1 0 2.22045e-16
    outer loop
      vertex -6 -6 -16
      vertex -6 1.85889 -13.5418
      vertex -6 0 -14
    endloop
  endfacet
  facet normal 1 0 2.22045e-16
    outer loop
      vertex -6 0.957263 -6.11623
      vertex -6 25.5 35
      vertex -6 -0.957263 -6.11623
    endloop
  endfacet
  facet normal 1 0 2.22045e-16
    outer loop
      vertex -6 2.65249 -7.00596
      vertex -6 25.5 35
      vertex -6 0.957263 -6.11623
    endloop
  endfacet
  facet normal 1 0 2.22045e-16
    outer loop
      vertex -6 3.74006 -8.58158
      vertex -6 3.97083 -10.4821
      vertex -6 34.5 -35
    endloop
  endfacet
  facet normal 1 0 2.22045e-16
    outer loop
      vertex -6 34.5 -35
      vertex -6 25.5 35
      vertex -6 2.65249 -7.00596
    endloop
  endfacet
  facet normal 1 0 2.22045e-16
    outer loop
      vertex -6 -3.74006 -8.58158
      vertex -6 -2.65249 -7.00596
      vertex -6 -34.5 -35
    endloop
  endfacet
  facet normal 1 0 2.22045e-16
    outer loop
      vertex -6 34.5 -35
      vertex -6 3.97083 -10.4821
      vertex -6 3.29194 -12.2723
    endloop
  endfacet
  facet normal 1 0 2.22045e-16
    outer loop
      vertex -6 -6 -16
      vertex -6 6 -16
      vertex -6 1.85889 -13.5418
    endloop
  endfacet
  facet normal 1 0 2.22045e-16
    outer loop
      vertex -6 6 -16
      vertex -6 3.29194 -12.2723
      vertex -6 1.85889 -13.5418
    endloop
  endfacet
  facet normal 1 0 2.22045e-16
    outer loop
      vertex -6 -6 -16
      vertex -6 -3.29194 -12.2723
      vertex -6 -34.5 -35
    endloop
  endfacet
  facet normal 1 0 2.22045e-16
    outer loop
      vertex -6 -3.29194 -12.2723
      vertex -6 -3.97083 -10.4821
      vertex -6 -34.5 -35
    endloop
  endfacet
  facet normal 1 0 2.22045e-16
    outer loop
      vertex -6 -3.97083 -10.4821
      vertex -6 -3.74006 -8.58158
      vertex -6 -34.5 -35
    endloop
  endfacet
  facet normal 1 0 2.22045e-16
    outer loop
      vertex -6 -6 -16
      vertex -6 0 -14
      vertex -6 -1.85889 -13.5418
    endloop
  endfacet
  facet normal 1 0 2.22045e-16
    outer loop
      vertex -6 -0.957263 -6.11623
      vertex -6 25.5 35
      vertex -6 -2.65249 -7.00596
    endloop
  endfacet
  facet normal 1 0 2.22045e-16
    outer loop
      vertex -6 6 -16
      vertex -6 6 -22
      vertex -6 34.5 -35
    endloop
  endfacet
  facet normal 1 0 2.22045e-16
    outer loop
      vertex -6 -1.85889 -13.5418
      vertex -6 -3.29194 -12.2723
      vertex -6 -6 -16
    endloop
  endfacet
  facet normal 1 0 2.22045e-16
    outer loop
      vertex -6 34.5 -35
      vertex -6 3.29194 -12.2723
      vertex -6 6 -16
    endloop
  endfacet
  facet normal 1 0 2.22045e-16
    outer loop
      vertex -6 34.5 -35
      vertex -6 6 -22
      vertex -6 -34.5 -35
    endloop
  endfacet
  facet normal 1 0 2.22045e-16
    outer loop
      vertex -6 6 -22
      vertex -6 -6 -22
      vertex -6 -34.5 -35
    endloop
  endfacet
  facet normal 1 0 2.22045e-16
    outer loop
      vertex -6 1.85889 11.4582
      vertex -6 0 11
      vertex -6 -34.5 -35
    endloop
  endfacet
  facet normal 1 0 2.22045e-16
    outer loop
      vertex -6 -1.85889 11.4582
      vertex -6 -3.29194 12.7277
      vertex -6 -34.5 -35
    endloop
  endfacet
  facet normal 1 0 2.22045e-16
    outer loop
      vertex -6 -6 -22
      vertex -6 -6 -16
      vertex -6 -34.5 -35
    endloop
  endfacet
  facet normal 2.83155e-17 -0.991836 -0.127522
    outer loop
      vertex -6 34.5 -35
      vertex 6 34.5 -35
      vertex 6 25.5 35
    endloop
  endfacet
  facet normal 2.83155e-17 -0.991836 -0.127522
    outer loop
      vertex -6 25.5 35
      vertex -6 34.5 -35
      vertex 6 25.5 35
    endloop
  endfacet
  facet normal -1 0 -2.22045e-16
    outer loop
      vertex 6 34.5 -35
      vertex 6 26.5 -35
      vertex 6 25.5 35
    endloop
  endfacet
  facet normal -1 0 -2.22045e-16
    outer loop
      vertex 6 25.5 35
      vertex 6 26.5 -35
      vertex 6 17.5 35
    endloop
  endfacet
  facet normal -0.806717 0.586114 0.0753575
    outer loop
      vertex -9.56403 27.316 35
      vertex -8.82843 28.3284 35
      vertex -9.56403 36.316 -35
    endloop
  endfacet
  facet normal -0.806717 0.586114 0.0753575
    outer loop
      vertex -9.56403 36.316 -35
      vertex -8.82843 28.3284 35
      vertex -8.82843 37.3284 -35
    endloop
  endfacet
  facet normal -0.805534 0.585255 0.0926958
    outer loop
      vertex -9.56403 27.316 35
      vertex -9.56403 27.2271 35.5612
      vertex -8.82843 28.3284 35
    endloop
  endfacet
  facet normal 2.22045e-16 0 -1
    outer loop
      vertex -6 6 -16
      vertex -6 -6 -16
      vertex -8.5 6 -16
    endloop
  endfacet
  facet normal 2.22045e-16 0 -1
    outer loop
      vertex -8.5 6 -16
      vertex -6 -6 -16
      vertex -8.5 -6 -16
    endloop
  endfacet
  facet normal 0 1 0
    outer loop
      vertex -6 -6 -22
      vertex -8.5 -6 -22
      vertex -6 -6 -16
    endloop
  endfacet
  facet normal 0 1 0
    outer loop
      vertex -6 -6 -16
      vertex -8.5 -6 -22
      vertex -8.5 -6 -16
    endloop
  endfacet
  facet normal -2.22045e-16 0 1
    outer loop
      vertex -6 -6 -22
      vertex -6 6 -22
      vertex -8.5 6 -22
    endloop
  endfacet
  facet normal -2.22045e-16 0 1
    outer loop
      vertex -8.5 -6 -22
      vertex -6 -6 -22
      vertex -8.5 6 -22
    endloop
  endfacet
  facet normal 0 -1 0
    outer loop
      vertex -8.5 6 -22
      vertex -6 6 -22
      vertex -6 6 -16
    endloop
  endfacet
  facet normal 0 -1 0
    outer loop
      vertex -8.5 6 -16
      vertex -8.5 6 -22
      vertex -6 6 -16
    endloop
  endfacet
  facet normal 1 0 2.22045e-16
    outer loop
      vertex -8.5 -6 -22
      vertex -8.5 6 -22
      vertex -8.5 6 -16
    endloop
  endfacet
  facet normal 1 0 2.22045e-16
    outer loop
      vertex -8.5 -6 -16
      vertex -8.5 -6 -22
      vertex -8.5 6 -16
    endloop
  endfacet
endsolid OpenSCAD_Model
